<?xml version="1.0" standalone="no"?>
<!DOCTYPE svg PUBLIC "-//W3C//DTD SVG 1.1//EN" "http://www.w3.org/Graphics/SVG/1.1/DTD/svg11.dtd" >
<svg xmlns="http://www.w3.org/2000/svg" xmlns:xlink="http://www.w3.org/1999/xlink" version="1.1">
<metadata>
Created by FontForge 20200427 at Sun Aug 16 18:39:33 2015
 By www
2009 Lukasz Dziedzic published by FSI FontShop International GmbH
</metadata>
<defs>
<font id="MachOTW03-CondensedMedium" horiz-adv-x="223" >
  <font-face 
    font-family="MachOTW03-CondensedMedium"
    font-weight="500"
    font-stretch="condensed"
    units-per-em="1000"
    panose-1="4 1 6 4 2 1 1 1 1 1"
    ascent="800"
    descent="-200"
    x-height="497"
    cap-height="713"
    bbox="-351 -210 755 892"
    underline-thickness="50"
    underline-position="-125"
    unicode-range="U+000D-FB04"
  />
<missing-glyph horiz-adv-x="366" 
d="M7 0v713h352v-713h-352zM83 76h200v561h-200v-561z" />
    <glyph glyph-name="f_f.liga" unicode="ff" horiz-adv-x="424" 
d="M251 0v414h-110v-414h-87v414h-49v83h50l20 183h150v-76h-71l-11 -107h109l21 183h159v-76h-80l-12 -107h83v-83h-85v-414h-87z" />
    <glyph glyph-name="f_f_i.liga" unicode="ffi" horiz-adv-x="569" 
d="M251 0v414h-110v-414h-87v414h-49v83h50l20 183h150v-76h-71l-12 -107h110l21 187h229v-82h-151l-12 -105h189v-497h-87v414h-103v-414h-87z" />
    <glyph glyph-name="f_f_j.liga" unicode="ffj" horiz-adv-x="568" 
d="M251 0v414h-110v-414h-87v414h-49v83h50l20 183h150v-76h-71l-11 -107h109l21 187h229v-82h-151l-11 -105h188v-510l-19 -162h-123v83h45l10 80v426h-103v-414h-87z" />
    <glyph glyph-name="f_f_l.liga" unicode="ffl" horiz-adv-x="582" 
d="M251 0v414h-110v-414h-87v414h-49v83h50l20 183h150v-76h-71l-11 -107h109l21 187h266v-684h-87v609h-100l-12 -112h65v-83h-67v-414h-87z" />
    <glyph glyph-name="f_i.liga" unicode="fi" horiz-adv-x="371" 
d="M243 0v414h-102v-414h-87v414h-49v83h50l21 187h229v-82h-151l-11 -105h187v-497h-87z" />
    <glyph glyph-name="f_j.liga" unicode="fj" horiz-adv-x="370" 
d="M141 414v-414h-87v414h-49v83h50l21 187h229v-82h-151l-11 -105h187v-510l-19 -162h-123v83h45l10 80v426h-102z" />
    <glyph glyph-name="f_l.liga" unicode="fl" horiz-adv-x="385" 
d="M255 0v609h-100l-12 -112h65v-83h-67v-414h-87v414h-49v83h50l21 187h266v-684h-87z" />
    <glyph glyph-name="f_t.liga" unicode="ft" horiz-adv-x="433" 
d="M5 414v83h50l21 183h172v-76h-93l-12 -107h103v80h87v-80h81v-83h-81v-255l8 -76h73v-83h-151l-17 152v262h-105v-414h-87v414h-49z" />
    <glyph glyph-name=".notdef" horiz-adv-x="366" 
d="M7 0v713h352v-713h-352zM83 76h200v561h-200v-561z" />
    <glyph glyph-name="glyph1" horiz-adv-x="0" 
 />
    <glyph glyph-name="glyph1" horiz-adv-x="0" 
 />
    <glyph glyph-name="uni000D" unicode="&#xd;" horiz-adv-x="145" 
 />
    <glyph glyph-name="space" unicode=" " horiz-adv-x="145" 
 />
    <glyph glyph-name="exclam" unicode="!" horiz-adv-x="164" 
d="M41 242v471h81v-471h-81zM33 0v109h98v-109h-98z" />
    <glyph glyph-name="quotedbl" unicode="&#x22;" horiz-adv-x="228" 
d="M133 454v259h62v-259h-62zM31 454v259h62v-259h-62z" />
    <glyph glyph-name="numbersign" unicode="#" horiz-adv-x="325" 
d="M313 497v-79h-59l-12 -141h71v-78h-77l-17 -199h-62l61 713h61l-18 -216h52zM11 199v78h60l12 141h-72v79h78l18 216h62l-61 -713h-60l16 199h-53z" />
    <glyph glyph-name="dollar" unicode="$" horiz-adv-x="423" 
d="M88 0v86h151l18 164l-184 216l29 247h75v100h79v-100h71v-86h-147l-14 -126l183 -218l-31 -283h-67v-97h-79v97h-84z" />
    <glyph glyph-name="percent" unicode="%" horiz-adv-x="537" 
d="M103 0l243 713h72l-243 -713h-72zM510 192l-22 -192h-161l-23 192l23 192h161zM447 192l-16 134h-47l-16 -134l16 -134h47zM214 521l-22 -192h-161l-23 192l23 192h161zM151 521l-16 134h-47l-16 -134l16 -134h47z" />
    <glyph glyph-name="ampersand" unicode="&#x26;" horiz-adv-x="359" 
d="M36 441l23 230h240v-80h-168l-14 -137l22 -68h70v87h85v-87h51v-80h-51v-226h51v-80h-300l-24 228l42 133zM105 226l15 -146h89v226h-78z" />
    <glyph glyph-name="quotesingle" unicode="'" horiz-adv-x="126" 
d="M31 454v259h62v-259h-62z" />
    <glyph glyph-name="parenleft" unicode="(" horiz-adv-x="193" 
d="M184 726v-76h-45l-39 -379l39 -382h44v-75h-118l-47 457l47 455h119z" />
    <glyph glyph-name="parenright" unicode=")" horiz-adv-x="193" 
d="M55 -111l39 382l-39 379h-45v76h118l47 -455l-47 -457h-118v75h45z" />
    <glyph glyph-name="asterisk" unicode="*" horiz-adv-x="290" 
d="M169 713v-92l82 48l25 -49l-78 -45l79 -46l-26 -49l-82 48v-94h-50v94l-82 -48l-25 49l78 45l-78 46l25 49l82 -48v92h50z" />
    <glyph glyph-name="plus" unicode="+" horiz-adv-x="325" 
d="M199 190h-74v119h-109v76h109v119h74v-119h110v-76h-110v-119z" />
    <glyph glyph-name="comma" unicode="," horiz-adv-x="164" 
d="M21 -166l26 267h79l-31 -267h-74z" />
    <glyph glyph-name="hyphen" unicode="-" horiz-adv-x="201" 
d="M16 229v82h171v-82h-171z" />
    <glyph glyph-name="period" unicode="." horiz-adv-x="164" 
d="M33 0v109h98v-109h-98z" />
    <glyph glyph-name="slash" unicode="/" horiz-adv-x="230" 
d="M-2 0l162 713h73l-162 -713h-73z" />
    <glyph glyph-name="zero" unicode="0" horiz-adv-x="325" 
d="M49 0l-35 357l35 356h227l35 -356l-35 -357h-227zM226 357l-28 273h-71l-27 -273l27 -273h71z" />
    <glyph glyph-name="one" unicode="1" horiz-adv-x="325" 
d="M50 0v76h81v553h-84v84h168v-637h79v-76h-244z" />
    <glyph glyph-name="two" unicode="2" horiz-adv-x="325" 
d="M304 91v-91h-277v196l189 288l-14 139h-161v90h237l25 -254l-191 -289v-79h192z" />
    <glyph glyph-name="three" unicode="3" horiz-adv-x="325" 
d="M26 0v91h174l15 152l-25 78h-112v91h104l28 88l-13 123h-160v90h234l23 -223l-36 -113l42 -131l-25 -246h-249z" />
    <glyph glyph-name="four" unicode="4" horiz-adv-x="325" 
d="M323 240v-88h-44v-152h-83v152h-178v197l121 364h91l-126 -367v-106h92v130h83v-130h44z" />
    <glyph glyph-name="five" unicode="5" horiz-adv-x="325" 
d="M46 0v91h154l13 135l-10 108l-171 17l30 362h217v-90h-141l-16 -191l157 -16l17 -190l-21 -226h-229z" />
    <glyph glyph-name="six" unicode="6" horiz-adv-x="325" 
d="M22 284l42 429h209v-90h-136l-19 -191h173l14 -153l-27 -279h-226zM103 284l21 -201h82l18 196l-6 71h-108z" />
    <glyph glyph-name="seven" unicode="7" horiz-adv-x="325" 
d="M218 571v52h-191v90h274v-147l-133 -566h-90z" />
    <glyph glyph-name="eight" unicode="8" horiz-adv-x="325" 
d="M306 248l-23 -248h-241l-23 248l38 134l-30 112l19 219h231l20 -219l-30 -109zM101 247l15 -163h92l15 163l-24 85h-74zM106 513l25 -97h62l25 95l-11 119h-90z" />
    <glyph glyph-name="nine" unicode="9" horiz-adv-x="325" 
d="M303 411l-41 -411h-209v91h135l22 216h-168l-17 160l24 246h225zM106 467l8 -79h104l2 23l-20 219h-78z" />
    <glyph glyph-name="colon" unicode=":" horiz-adv-x="164" 
d="M33 387v109h98v-109h-98zM33 0v109h98v-109h-98z" />
    <glyph glyph-name="semicolon" unicode=";" horiz-adv-x="164" 
d="M33 387v109h98v-109h-98zM21 -166l26 267h79l-31 -267h-74z" />
    <glyph glyph-name="less" unicode="&#x3c;" horiz-adv-x="325" 
d="M219 138l-178 206l178 206l55 -47l-137 -159l137 -158z" />
    <glyph glyph-name="equal" unicode="=" horiz-adv-x="325" 
d="M283 450v-75h-242v75h242zM283 319v-75h-242v75h242z" />
    <glyph glyph-name="greater" unicode="&#x3e;" horiz-adv-x="325" 
d="M106 553l178 -206l-178 -206l-55 48l136 158l-136 158z" />
    <glyph glyph-name="question" unicode="?" horiz-adv-x="334" 
d="M125 237v121l96 136l-13 139h-87l-13 -118h-74l21 198h227l24 -237l-97 -134v-105h-84zM106 0v109h98v-109h-98z" />
    <glyph glyph-name="at" unicode="@" horiz-adv-x="528" 
d="M62 -74l-38 357l38 356h406l30 -278l-30 -277h-297l-22 199l21 197h198v-323h39l21 204l-22 208h-282l-30 -286l30 -287h362v-70h-424zM224 283l13 -126h61v248h-61z" />
    <glyph glyph-name="A" unicode="A" horiz-adv-x="400" 
d="M299 0l-27 220h-144l-27 -220h-87l87 713h199l86 -713h-87zM178 630l-40 -326h124l-39 326h-45z" />
    <glyph glyph-name="B" unicode="B" horiz-adv-x="390" 
d="M42 0v713h287l24 -225l-36 -106l49 -116l-27 -266h-297zM277 261l-31 73h-115v-253h128zM267 489l-16 143h-120v-215h112z" />
    <glyph glyph-name="C" unicode="C" horiz-adv-x="331" 
d="M62 0l-37 357l37 356h244v-89h-164l-28 -267l28 -269h164v-88h-244z" />
    <glyph glyph-name="D" unicode="D" horiz-adv-x="410" 
d="M42 0v713h305l38 -356l-38 -357h-305zM297 357l-31 271h-135v-544h135z" />
    <glyph glyph-name="E" unicode="E" horiz-adv-x="332" 
d="M42 0v713h266v-88h-174v-210h150v-84h-150v-243h174v-88h-266z" />
    <glyph glyph-name="F" unicode="F" horiz-adv-x="325" 
d="M42 0v713h266v-89h-174v-212h157v-86h-157v-326h-92z" />
    <glyph glyph-name="G" unicode="G" horiz-adv-x="398" 
d="M63 0l-38 357l38 356h288v-89h-209l-28 -267l30 -278h139v233h-75v78h157v-390h-302z" />
    <glyph glyph-name="H" unicode="H" horiz-adv-x="418" 
d="M285 0v331h-153v-331h-90v713h90v-296h153v296h91v-713h-91z" />
    <glyph glyph-name="I" unicode="I" horiz-adv-x="200" 
d="M54 0v713h92v-713h-92z" />
    <glyph glyph-name="J" unicode="J" horiz-adv-x="284" 
d="M152 228v485h92v-485l-26 -228h-206v88h124z" />
    <glyph glyph-name="K" unicode="K" horiz-adv-x="408" 
d="M298 0l-93 332h-74v-332h-89v713h89v-296h72l90 296h92l-100 -334l106 -379h-93z" />
    <glyph glyph-name="L" unicode="L" horiz-adv-x="319" 
d="M42 0v713h92v-625h175v-88h-267z" />
    <glyph glyph-name="M" unicode="M" horiz-adv-x="630" 
d="M233 0l-74 631h-34v-631h-83v713h190l73 -634h26l74 634h190v-713h-83v631h-36l-73 -631h-170z" />
    <glyph glyph-name="N" unicode="N" horiz-adv-x="497" 
d="M42 0v713h187l108 -634h35v634h83v-713h-189l-109 631h-32v-631h-83z" />
    <glyph glyph-name="O" unicode="O" horiz-adv-x="418" 
d="M63 0l-38 357l38 356h292l38 -356l-38 -357h-292zM304 357l-28 271h-133l-29 -271l29 -273h133z" />
    <glyph glyph-name="P" unicode="P" horiz-adv-x="384" 
d="M132 281v-281h-90v713h292l23 -218l-23 -214h-202zM268 495l-15 136h-121v-268h121z" />
    <glyph glyph-name="Q" unicode="Q" horiz-adv-x="418" 
d="M63 0l-38 357l38 356h292l38 -356l-38 -357h-104v-167h-84v167h-104zM304 357l-28 271h-133l-29 -271l29 -273h133z" />
    <glyph glyph-name="R" unicode="R" horiz-adv-x="404" 
d="M304 0l-81 307h-92v-307h-89v713h292l26 -221l-56 -151l91 -341h-91zM271 496l-16 135h-124v-242h101z" />
    <glyph glyph-name="S" unicode="S" horiz-adv-x="325" 
d="M40 0v86h150l18 165l-183 215l29 247h224v-86h-146l-15 -126l184 -218l-32 -283h-229z" />
    <glyph glyph-name="T" unicode="T" horiz-adv-x="347" 
d="M9 624v89h328v-89h-117v-624h-93v624h-118z" />
    <glyph glyph-name="U" unicode="U" horiz-adv-x="415" 
d="M66 0l-25 228v485h89v-485l16 -144h123l16 144v485h89v-485l-25 -228h-283z" />
    <glyph glyph-name="V" unicode="V" horiz-adv-x="396" 
d="M106 713l71 -629h40l72 629h88l-81 -713h-196l-81 713h87z" />
    <glyph glyph-name="W" unicode="W" horiz-adv-x="649" 
d="M111 713l48 -629h31l48 629h175l48 -629h30l50 629h86l-57 -713h-181l-48 631h-31l-48 -631h-180l-57 713h86z" />
    <glyph glyph-name="X" unicode="X" horiz-adv-x="402" 
d="M111 713l67 -298h45l69 298h89l-77 -336l83 -377h-90l-73 331h-47l-72 -331h-90l82 379l-76 334h90z" />
    <glyph glyph-name="Y" unicode="Y" horiz-adv-x="392" 
d="M103 713l73 -359h39l73 359h86l-91 -442h-44v-271h-89v271h-44l-89 442h86z" />
    <glyph glyph-name="Z" unicode="Z" horiz-adv-x="332" 
d="M27 624v89h284v-146l-202 -440v-39h203v-88h-290v146l203 439h-1v39h-197z" />
    <glyph glyph-name="bracketleft" unicode="[" horiz-adv-x="193" 
d="M184 726v-76h-61v-761h60v-76h-141v913h142z" />
    <glyph glyph-name="backslash" unicode="\" horiz-adv-x="230" 
d="M69 713l162 -713h-73l-162 713h73z" />
    <glyph glyph-name="bracketright" unicode="]" horiz-adv-x="193" 
d="M10 -187v76h65v761h-65v76h147v-913h-147z" />
    <glyph glyph-name="asciicircum" unicode="^" horiz-adv-x="325" 
d="M221 506l-42 135h-34l-41 -135h-70l64 207h128l65 -207h-70z" />
    <glyph glyph-name="underscore" unicode="_" horiz-adv-x="325" 
d="M325 -99v-76h-325v76h325z" />
    <glyph glyph-name="grave" unicode="`" horiz-adv-x="164" 
d="M29 709l132 -98l-42 -59l-132 98z" />
    <glyph glyph-name="a" unicode="a" horiz-adv-x="353" 
d="M352 83v-83h-314v251l168 54l-8 109h-148v83h230l27 -414h45zM119 195v-119h102l-10 148z" />
    <glyph glyph-name="b" unicode="b" horiz-adv-x="346" 
d="M33 0v730h87v-233h179l26 -249l-26 -248h-266zM239 248l-17 166h-102v-331h102z" />
    <glyph glyph-name="c" unicode="c" horiz-adv-x="269" 
d="M250 497v-83h-126l-17 -166l17 -165h126v-83h-203l-26 248l26 249h203z" />
    <glyph glyph-name="d" unicode="d" horiz-adv-x="364" 
d="M226 497v233h87v-647h44v-83h-310l-26 248l26 249h179zM107 248l17 -165h102v331h-102z" />
    <glyph glyph-name="e" unicode="e" horiz-adv-x="337" 
d="M290 497l26 -245l-205 -47l13 -122h182v-83h-259l-26 248l26 249h243zM123 418l-14 -131l119 28l-11 103h-94z" />
    <glyph glyph-name="f" unicode="f" horiz-adv-x="236" 
d="M5 414v83h50l20 183h169v-76h-90l-11 -107h83v-83h-85v-414h-87v414h-49z" />
    <glyph glyph-name="g" unicode="g" horiz-adv-x="344" 
d="M326 497v-83h-33v-227l-160 -52l-4 -40l187 -51l-25 -219h-262v82h196l8 67l-188 52l17 139l-40 70l27 262h277zM107 249l19 -32l86 28v173h-88z" />
    <glyph glyph-name="h" unicode="h" horiz-adv-x="350" 
d="M245 0l-26 414h-99v-414h-87v730h87v-233h180l31 -497h-86z" />
    <glyph glyph-name="i" unicode="i" horiz-adv-x="187" 
d="M15 414v83h131v-497h-87v414h-44zM51 580v125h89v-125h-89z" />
    <glyph glyph-name="j" unicode="j" horiz-adv-x="186" 
d="M15 414v83h131v-510l-18 -162h-124v83h46l9 80v426h-44zM51 580v125h89v-125h-89z" />
    <glyph glyph-name="k" unicode="k" horiz-adv-x="358" 
d="M262 0l-80 226h-59v-226h-87v730h87v-423h57l45 190h109v-83h-43l-37 -143l99 -271h-91z" />
    <glyph glyph-name="l" unicode="l" horiz-adv-x="174" 
d="M44 0v730h87v-730h-87z" />
    <glyph glyph-name="m" unicode="m" horiz-adv-x="532" 
d="M229 0v414h-91v-414h-87v414h-44v83h473l33 -497h-86l-28 414h-83v-414h-87z" />
    <glyph glyph-name="n" unicode="n" horiz-adv-x="366" 
d="M260 0l-28 414h-94v-414h-87v414h-44v83h307l33 -497h-87z" />
    <glyph glyph-name="o" unicode="o" horiz-adv-x="348" 
d="M21 248l26 249h254l26 -249l-26 -248h-254zM107 248l17 -165h99l17 165l-17 166h-99z" />
    <glyph glyph-name="p" unicode="p" horiz-adv-x="365" 
d="M139 0v-175h-87v589h-43v83h309l26 -249l-26 -248h-179zM258 248l-17 166h-102v-331h102z" />
    <glyph glyph-name="q" unicode="q" horiz-adv-x="347" 
d="M313 497v-672h-87v175h-179l-26 249l26 248h266zM107 249l17 -166h102v331h-102z" />
    <glyph glyph-name="r" unicode="r" horiz-adv-x="331" 
d="M226 290l-12 128h-75v-418h-87v414h-43v83h278l20 -207h-81z" />
    <glyph glyph-name="s" unicode="s" horiz-adv-x="274" 
d="M21 286l22 211h193v-83h-120l-9 -82l146 -107l-23 -225h-196v83h123l10 97z" />
    <glyph glyph-name="t" unicode="t" horiz-adv-x="244" 
d="M73 0l-15 152v262h-43v83h43v131h87v-131h81v-83h-81v-255l7 -76h74v-83h-153z" />
    <glyph glyph-name="u" unicode="u" horiz-adv-x="366" 
d="M106 497l27 -419h97v419h88v-414h40v-83h-307l-32 497h87z" />
    <glyph glyph-name="v" unicode="v" horiz-adv-x="349" 
d="M99 497l59 -421h32l60 421h87l-72 -497h-183l-71 497h88z" />
    <glyph glyph-name="w" unicode="w" horiz-adv-x="550" 
d="M83 0l-64 497h88l55 -421h77l-28 421h84l28 -421h62l55 421h87l-64 -497h-380z" />
    <glyph glyph-name="x" unicode="x" horiz-adv-x="353" 
d="M108 497l52 -202h33l52 202h87l-66 -237l74 -260h-90l-57 214h-33l-58 -214h-89l74 260l-66 237h87z" />
    <glyph glyph-name="y" unicode="y" horiz-adv-x="351" 
d="M80 -175v83h95l14 107h-101l-75 482h87l60 -406h39l53 406h87l-89 -672h-170z" />
    <glyph glyph-name="z" unicode="z" horiz-adv-x="285" 
d="M24 414v83h244v-124l-157 -265v-25h158v-83h-245v123l157 263v28h-157z" />
    <glyph glyph-name="braceleft" unicode="{" horiz-adv-x="193" 
d="M184 726v-76h-45l-9 -83l19 -198l-29 -100l29 -99l-19 -199l9 -82h44v-76h-118l-17 158l19 199l-18 61h-40v76h40l18 62l-19 198l17 159h119z" />
    <glyph glyph-name="bar" unicode="|" horiz-adv-x="200" 
d="M141 824v-998h-82v998h82z" />
    <glyph glyph-name="braceright" unicode="}" horiz-adv-x="193" 
d="M44 369l20 198l-9 83h-48v76h122l17 -159l-20 -198l19 -62h41v-76h-42l-18 -61l20 -199l-17 -158h-121v76h47l9 82l-20 199l29 99z" />
    <glyph glyph-name="asciitilde" unicode="~" horiz-adv-x="325" 
d="M23 219l20 202h137l19 -141h26l15 141h62l-20 -202h-138l-20 142h-24l-15 -142h-62z" />
    <glyph glyph-name="uni00A0" unicode="&#xa0;" horiz-adv-x="145" 
 />
    <glyph glyph-name="exclamdown" unicode="&#xa1;" horiz-adv-x="164" 
d="M41 -175v471h81v-471h-81zM33 387v110h98v-110h-98z" />
    <glyph glyph-name="cent" unicode="&#xa2;" horiz-adv-x="423" 
d="M96 248l26 249h64v109h85v-109h55v-83h-126l-17 -166l17 -165h126v-83h-55v-105h-86v105h-63z" />
    <glyph glyph-name="sterling" unicode="&#xa3;" horiz-adv-x="423" 
d="M353 713v-87h-160l-15 -117v-110h150v-87h-150v-225h217v-87h-360v87h58v422l25 204h235z" />
    <glyph glyph-name="currency" unicode="&#xa4;" horiz-adv-x="423" 
d="M358 421l-33 -33l10 -72l-9 -70l32 -33l-50 -57l-39 40h-116l-39 -40l-50 57l33 35l-9 68l9 70l-33 35l50 57l40 -41h114l40 41zM155 316l7 -50h99l7 50l-7 51h-99z" />
    <glyph glyph-name="yen" unicode="&#xa5;" horiz-adv-x="423" 
d="M112 711l73 -357h52l74 357h86l-73 -357h51v-85h-118v-58h118v-84h-118v-127h-93v127h-116v84h116v58h-116v85h50l-73 357h87z" />
    <glyph glyph-name="brokenbar" unicode="&#xa6;" horiz-adv-x="200" 
d="M141 764v-378h-82v378h82zM141 264v-378h-82v378h82z" />
    <glyph glyph-name="section" unicode="&#xa7;" horiz-adv-x="339" 
d="M299 713v-82h-165l-19 -180h170l32 -313l-33 -313h-244v83h166l19 179h-170l-32 312l32 314h244zM113 369l20 -199h95l-21 199h-94z" />
    <glyph glyph-name="dieresis" unicode="&#xa8;" horiz-adv-x="164" 
d="M-7 589v116h65v-116h-65zM107 589v116h64v-116h-64z" />
    <glyph glyph-name="copyright" unicode="&#xa9;" horiz-adv-x="502" 
d="M480 357l-38 -357h-383l-38 357l38 356h383zM379 70l31 287l-31 286h-258l-30 -286l30 -287h258zM146 357l21 197h178v-74h-111l-14 -123l14 -126h111v-73h-177z" />
    <glyph glyph-name="ordfeminine" unicode="&#xaa;" horiz-adv-x="213" 
d="M212 495v-56h-195v141l96 30l-3 46h-85v57h145l16 -218h26zM76 545v-60h47l-6 73z" />
    <glyph glyph-name="guillemotleft" unicode="&#xab;" horiz-adv-x="264" 
d="M97 270l26 -151h-68l-27 151l27 153h68zM205 270l26 -151h-68l-27 151l27 153h68z" />
    <glyph glyph-name="logicalnot" unicode="&#xac;" horiz-adv-x="325" 
d="M295 203h-74v106h-205v76h279v-182z" />
    <glyph glyph-name="uni00AD" unicode="&#xad;" horiz-adv-x="201" 
d="M16 229v82h171v-82h-171z" />
    <glyph glyph-name="registered" unicode="&#xae;" horiz-adv-x="322" 
d="M44 324l-23 195l23 194h235l22 -194l-22 -195h-235zM235 371l19 148l-19 146h-148l-18 -146l18 -148h148zM181 409l-13 82h-21v-82h-47v217h115l9 -73l-10 -45l14 -99h-47zM178 553l-5 34h-26v-57h25z" />
    <glyph glyph-name="macron" unicode="&#xaf;" horiz-adv-x="164" 
d="M166 671v-68h-168v68h168z" />
    <glyph glyph-name="degree" unicode="&#xb0;" horiz-adv-x="217" 
d="M10 576l17 137h163l16 -137l-16 -137h-163zM74 576l10 -80h49l9 80l-9 80h-49z" />
    <glyph glyph-name="plusminus" unicode="&#xb1;" horiz-adv-x="325" 
d="M199 221h-74v112h-109v75h109v117h74v-117h110v-75h-110v-112zM301 192v-74h-277v74h277z" />
    <glyph glyph-name="uni00B2" unicode="&#xb2;" 
d="M208 511v-66h-191v121l126 128l-8 70h-109v65h164l18 -151l-130 -133v-34h130z" />
    <glyph glyph-name="uni00B3" unicode="&#xb3;" 
d="M29 445v65h110l8 65l-17 37h-58v61h54l19 39l-7 52h-106v65h158l14 -119l-27 -55l32 -73l-17 -137h-163z" />
    <glyph glyph-name="acute" unicode="&#xb4;" horiz-adv-x="164" 
d="M13 611l131 98l42 -59l-130 -98z" />
    <glyph glyph-name="uni00B5" unicode="&#xb5;" horiz-adv-x="366" 
d="M116 497v-419h117v419h85v-414h40v-83h-242v-159h-84v656h84z" />
    <glyph glyph-name="paragraph" unicode="&#xb6;" horiz-adv-x="385" 
d="M85 0v532h-59l-9 90l9 91h346v-84h-54v-629h-79v633h-75v-633h-79z" />
    <glyph glyph-name="periodcentered" unicode="&#xb7;" horiz-adv-x="196" 
d="M145 272l-7 -59h-81l-7 59l7 60h81z" />
    <glyph glyph-name="cedilla" unicode="&#xb8;" horiz-adv-x="164" 
d="M52 0h69l-28 -175h-70z" />
    <glyph glyph-name="uni00B9" unicode="&#xb9;" 
d="M41 445v53h48v271h-49v60h112v-331h45v-53h-156z" />
    <glyph glyph-name="ordmasculine" unicode="&#xba;" horiz-adv-x="217" 
d="M10 576l17 137h163l16 -137l-16 -137h-163zM74 576l10 -80h49l9 80l-9 80h-49z" />
    <glyph glyph-name="guillemotright" unicode="&#xbb;" horiz-adv-x="264" 
d="M33 119l27 151l-27 153h68l27 -153l-27 -151h-68zM141 119l27 151l-27 153h68l27 -153l-27 -151h-68z" />
    <glyph glyph-name="onequarter" unicode="&#xbc;" horiz-adv-x="537" 
d="M107 0l243 713h72l-243 -713h-72zM514 137v-61h-28v-76h-60v76h-119v126l88 182h70l-99 -206v-41h60v68h60v-68h28zM41 329v53h48v271h-49v60h112v-331h45v-53h-156z" />
    <glyph glyph-name="onehalf" unicode="&#xbd;" horiz-adv-x="537" 
d="M107 0l243 713h72l-243 -713h-72zM504 66v-66h-191v121l126 128l-8 70h-109v65h164l18 -151l-130 -133v-34h130zM41 329v53h48v271h-49v60h112v-331h45v-53h-156z" />
    <glyph glyph-name="threequarters" unicode="&#xbe;" horiz-adv-x="537" 
d="M107 0l243 713h72l-243 -713h-72zM514 137v-61h-28v-76h-60v76h-119v126l88 182h70l-99 -206v-41h60v68h60v-68h28zM29 329v65h110l8 65l-17 37h-58v61h54l19 39l-7 52h-106v65h158l14 -119l-27 -55l32 -73l-17 -137h-163z" />
    <glyph glyph-name="questiondown" unicode="&#xbf;" horiz-adv-x="334" 
d="M278 -175h-226l-24 238l97 134v104h84v-121l-96 -136l13 -139h87l13 118h74zM214 497v-110h-98v110h98z" />
    <glyph glyph-name="Agrave" unicode="&#xc0;" horiz-adv-x="400" 
d="M299 0l-27 220h-144l-27 -220h-87l87 713h199l86 -713h-87zM178 630l-40 -326h124l-39 326h-45zM115 867l165 -52l-21 -71l-166 52z" />
    <glyph glyph-name="Aacute" unicode="&#xc1;" horiz-adv-x="400" 
d="M299 0l-27 220h-144l-27 -220h-87l87 713h199l86 -713h-87zM178 630l-40 -326h124l-39 326h-45zM113 815l166 52l22 -71l-166 -52z" />
    <glyph glyph-name="Acircumflex" unicode="&#xc2;" horiz-adv-x="400" 
d="M299 0l-27 220h-144l-27 -220h-87l87 713h199l86 -713h-87zM178 630l-40 -326h124l-39 326h-45zM224 754l-9 37h-29l-8 -37h-60l21 95h123l23 -95h-61z" />
    <glyph glyph-name="Atilde" unicode="&#xc3;" horiz-adv-x="400" 
d="M299 0l-27 220h-144l-27 -220h-87l87 713h199l86 -713h-87zM178 630l-40 -326h124l-39 326h-45zM212 863l16 -48h16l10 48h47l-19 -94h-88l-14 41h-19l-8 -41h-47l19 94h87z" />
    <glyph glyph-name="Adieresis" unicode="&#xc4;" horiz-adv-x="400" 
d="M299 0l-27 220h-144l-27 -220h-87l87 713h199l86 -713h-87zM178 630l-40 -326h124l-39 326h-45zM112 755v102h65v-102h-65zM225 755v102h65v-102h-65z" />
    <glyph glyph-name="Aring" unicode="&#xc5;" horiz-adv-x="400" 
d="M279 753l-8 -40h29l86 -713h-87l-27 220h-144l-27 -220h-87l87 713h29l-9 40l19 89h122zM178 630l-40 -326h124l-39 326h-45zM227 753l-9 42h-36l-8 -42l8 -40h37z" />
    <glyph glyph-name="AE" unicode="&#xc6;" horiz-adv-x="553" 
d="M283 0l-13 224h-139l-28 -224h-87l90 713h423v-89h-194l13 -209h158v-84h-153l15 -243h161v-88h-246zM182 630l-41 -323h124l-19 323h-64z" />
    <glyph glyph-name="Ccedilla" unicode="&#xc7;" horiz-adv-x="331" 
d="M62 0l-37 357l37 356h244v-89h-164l-28 -267l28 -269h164v-88h-76l-28 -175h-70l29 175h-99z" />
    <glyph glyph-name="Egrave" unicode="&#xc8;" horiz-adv-x="332" 
d="M42 0v713h266v-88h-174v-210h150v-84h-150v-243h174v-88h-266zM87 867l165 -52l-21 -71l-166 52z" />
    <glyph glyph-name="Eacute" unicode="&#xc9;" horiz-adv-x="332" 
d="M42 0v713h266v-88h-174v-210h150v-84h-150v-243h174v-88h-266zM85 815l166 52l22 -71l-166 -52z" />
    <glyph glyph-name="Ecircumflex" unicode="&#xca;" horiz-adv-x="332" 
d="M42 0v713h266v-88h-174v-210h150v-84h-150v-243h174v-88h-266zM196 754l-9 37h-29l-8 -37h-60l21 95h123l23 -95h-61z" />
    <glyph glyph-name="Edieresis" unicode="&#xcb;" horiz-adv-x="332" 
d="M42 0v713h266v-88h-174v-210h150v-84h-150v-243h174v-88h-266zM84 755v102h65v-102h-65zM197 755v102h65v-102h-65z" />
    <glyph glyph-name="Igrave" unicode="&#xcc;" horiz-adv-x="200" 
d="M54 0v713h92v-713h-92zM20 867l165 -52l-21 -71l-166 52z" />
    <glyph glyph-name="Iacute" unicode="&#xcd;" horiz-adv-x="200" 
d="M54 0v713h92v-713h-92zM13 815l166 52l22 -71l-166 -52z" />
    <glyph glyph-name="Icircumflex" unicode="&#xce;" horiz-adv-x="200" 
d="M54 0v713h92v-713h-92zM124 754l-9 37h-29l-8 -37h-60l21 95h123l23 -95h-61z" />
    <glyph glyph-name="Idieresis" unicode="&#xcf;" horiz-adv-x="200" 
d="M54 0v713h92v-713h-92zM12 755v102h65v-102h-65zM125 755v102h65v-102h-65z" />
    <glyph glyph-name="Eth" unicode="&#xd0;" horiz-adv-x="410" 
d="M42 0v326h-41v85h41v302h305l38 -356l-38 -357h-305zM297 357l-31 271h-135v-217h90v-85h-90v-242h135z" />
    <glyph glyph-name="Ntilde" unicode="&#xd1;" horiz-adv-x="497" 
d="M42 0v713h187l108 -634h35v634h83v-713h-189l-109 631h-32v-631h-83zM269 849l16 -48h16l10 48h47l-19 -94h-88l-14 41h-19l-8 -41h-47l19 94h87z" />
    <glyph glyph-name="Ograve" unicode="&#xd2;" horiz-adv-x="418" 
d="M63 0l-38 357l38 356h292l38 -356l-38 -357h-292zM304 357l-28 271h-133l-29 -271l29 -273h133zM139 867l165 -52l-21 -71l-166 52z" />
    <glyph glyph-name="Oacute" unicode="&#xd3;" horiz-adv-x="418" 
d="M63 0l-38 357l38 356h292l38 -356l-38 -357h-292zM304 357l-28 271h-133l-29 -271l29 -273h133zM131 815l166 52l22 -71l-166 -52z" />
    <glyph glyph-name="Ocircumflex" unicode="&#xd4;" horiz-adv-x="418" 
d="M63 0l-38 357l38 356h292l38 -356l-38 -357h-292zM304 357l-28 271h-133l-29 -271l29 -273h133zM232 754l-9 37h-29l-8 -37h-60l21 95h123l23 -95h-61z" />
    <glyph glyph-name="Otilde" unicode="&#xd5;" horiz-adv-x="418" 
d="M63 0l-38 357l38 356h292l38 -356l-38 -357h-292zM304 357l-28 271h-133l-29 -271l29 -273h133zM218 849l16 -48h16l10 48h47l-19 -94h-88l-14 41h-19l-8 -41h-47l19 94h87z" />
    <glyph glyph-name="Odieresis" unicode="&#xd6;" horiz-adv-x="418" 
d="M63 0l-38 357l38 356h292l38 -356l-38 -357h-292zM304 357l-28 271h-133l-29 -271l29 -273h133zM121 755v102h65v-102h-65zM234 755v102h65v-102h-65z" />
    <glyph glyph-name="multiply" unicode="&#xd7;" horiz-adv-x="325" 
d="M310 248l-47 -52l-101 101l-100 -101l-47 52l98 98l-98 99l47 52l100 -101l101 101l47 -52l-98 -99z" />
    <glyph glyph-name="Oslash" unicode="&#xd8;" horiz-adv-x="418" 
d="M63 0l-38 357l38 356h292l38 -356l-38 -357h-292zM304 357l-7 68l-167 -223l13 -118h133zM143 628l-29 -271l6 -59l167 223l-11 107h-133z" />
    <glyph glyph-name="Ugrave" unicode="&#xd9;" horiz-adv-x="415" 
d="M66 0l-25 228v485h89v-485l16 -144h123l16 144v485h89v-485l-25 -228h-283zM134 867l165 -52l-21 -71l-166 52z" />
    <glyph glyph-name="Uacute" unicode="&#xda;" horiz-adv-x="415" 
d="M66 0l-25 228v485h89v-485l16 -144h123l16 144v485h89v-485l-25 -228h-283zM134 815l166 52l22 -71l-166 -52z" />
    <glyph glyph-name="Ucircumflex" unicode="&#xdb;" horiz-adv-x="415" 
d="M66 0l-25 228v485h89v-485l16 -144h123l16 144v485h89v-485l-25 -228h-283zM231 754l-9 37h-29l-8 -37h-60l21 95h123l23 -95h-61z" />
    <glyph glyph-name="Udieresis" unicode="&#xdc;" horiz-adv-x="415" 
d="M66 0l-25 228v485h89v-485l16 -144h123l16 144v485h89v-485l-25 -228h-283zM119 755v102h65v-102h-65zM232 755v102h65v-102h-65z" />
    <glyph glyph-name="Yacute" unicode="&#xdd;" horiz-adv-x="392" 
d="M103 713l73 -359h39l73 359h86l-91 -442h-44v-271h-89v271h-44l-89 442h86zM119 815l166 52l22 -71l-166 -52z" />
    <glyph glyph-name="Thorn" unicode="&#xde;" horiz-adv-x="384" 
d="M357 351l-23 -214h-202v-137h-90v713h90v-144h202zM268 351l-15 136h-121v-268h121z" />
    <glyph glyph-name="germandbls" unicode="&#xdf;" horiz-adv-x="379" 
d="M44 0v479l22 201h227l27 -259l-62 -41v-33l100 -70l-30 -277h-161v83h89l15 149l-93 64v135l57 36l-15 137h-76l-14 -125v-479h-86z" />
    <glyph glyph-name="agrave" unicode="&#xe0;" horiz-adv-x="353" 
d="M352 83v-83h-314v251l168 54l-8 109h-148v83h230l27 -414h45zM119 195v-119h102l-10 148zM116 709l132 -98l-42 -59l-132 98z" />
    <glyph glyph-name="aacute" unicode="&#xe1;" horiz-adv-x="353" 
d="M352 83v-83h-314v251l168 54l-8 109h-148v83h230l27 -414h45zM119 195v-119h102l-10 148zM99 611l131 98l42 -59l-130 -98z" />
    <glyph glyph-name="acircumflex" unicode="&#xe2;" horiz-adv-x="353" 
d="M352 83v-83h-314v251l168 54l-8 109h-148v83h230l27 -414h45zM119 195v-119h102l-10 148zM191 564l-13 83h-20l-13 -83h-60l21 141h123l23 -141h-61z" />
    <glyph glyph-name="atilde" unicode="&#xe3;" horiz-adv-x="353" 
d="M352 83v-83h-314v251l168 54l-8 109h-148v83h230l27 -414h45zM119 195v-119h102l-10 148zM179 691l16 -55h16l10 55h46l-18 -108h-88l-16 55h-15l-10 -55h-46l18 108h87z" />
    <glyph glyph-name="adieresis" unicode="&#xe4;" horiz-adv-x="353" 
d="M352 83v-83h-314v251l168 54l-8 109h-148v83h230l27 -414h45zM119 195v-119h102l-10 148zM79 589v116h65v-116h-65zM193 589v116h64v-116h-64z" />
    <glyph glyph-name="aring" unicode="&#xe5;" horiz-adv-x="353" 
d="M352 83v-83h-314v251l168 54l-8 109h-148v83h230l27 -414h45zM119 195v-119h102l-10 148zM107 550l-18 86l18 89h123l17 -89l-17 -86h-123zM195 636l-9 42h-36l-8 -42l8 -40h37z" />
    <glyph glyph-name="ae" unicode="&#xe6;" horiz-adv-x="503" 
d="M454 497l25 -238l-187 -39l9 -137h174v-83h-437v251l172 35v128h-160v83h404zM119 185v-109h102l-8 128zM289 418v-115l102 21l-10 94h-92z" />
    <glyph glyph-name="ccedilla" unicode="&#xe7;" horiz-adv-x="269" 
d="M121 0h-74l-26 248l26 249h203v-83h-126l-17 -166l17 -165h126v-83h-60l-28 -175h-70z" />
    <glyph glyph-name="egrave" unicode="&#xe8;" horiz-adv-x="337" 
d="M290 497l26 -245l-205 -47l13 -122h182v-83h-259l-26 248l26 249h243zM123 418l-14 -131l119 28l-11 103h-94zM114 709l132 -98l-42 -59l-132 98z" />
    <glyph glyph-name="eacute" unicode="&#xe9;" horiz-adv-x="337" 
d="M290 497l26 -245l-205 -47l13 -122h182v-83h-259l-26 248l26 249h243zM123 418l-14 -131l119 28l-11 103h-94zM99 611l131 98l42 -59l-130 -98z" />
    <glyph glyph-name="ecircumflex" unicode="&#xea;" horiz-adv-x="337" 
d="M290 497l26 -245l-205 -47l13 -122h182v-83h-259l-26 248l26 249h243zM123 418l-14 -131l119 28l-11 103h-94zM190 564l-13 83h-20l-13 -83h-60l21 141h123l23 -141h-61z" />
    <glyph glyph-name="edieresis" unicode="&#xeb;" horiz-adv-x="337" 
d="M290 497l26 -245l-205 -47l13 -122h182v-83h-259l-26 248l26 249h243zM123 418l-14 -131l119 28l-11 103h-94zM78 589v116h65v-116h-65zM192 589v116h64v-116h-64z" />
    <glyph glyph-name="igrave" unicode="&#xec;" horiz-adv-x="187" 
d="M15 414v83h131v-497h-87v414h-44zM38 709l132 -98l-42 -59l-132 98z" />
    <glyph glyph-name="iacute" unicode="&#xed;" horiz-adv-x="187" 
d="M15 414v83h131v-497h-87v414h-44zM23 611l131 98l42 -59l-130 -98z" />
    <glyph glyph-name="icircumflex" unicode="&#xee;" horiz-adv-x="187" 
d="M15 414v83h131v-497h-87v414h-44zM114 564l-13 83h-20l-13 -83h-60l21 141h123l23 -141h-61z" />
    <glyph glyph-name="idieresis" unicode="&#xef;" horiz-adv-x="187" 
d="M15 414v83h131v-497h-87v414h-44zM2 589v116h65v-116h-65zM116 589v116h64v-116h-64z" />
    <glyph glyph-name="eth" unicode="&#xf0;" horiz-adv-x="348" 
d="M151 554l-8 77l56 7l-8 76l85 14l8 -79l53 7l7 -77l-52 -7l35 -324l-26 -248h-254l-25 245l25 246h167l-7 70zM108 245l16 -162h99l17 165l-17 160h-99z" />
    <glyph glyph-name="ntilde" unicode="&#xf1;" horiz-adv-x="366" 
d="M260 0l-28 414h-94v-414h-87v414h-44v83h307l33 -497h-87zM177 691l16 -55h16l10 55h46l-18 -108h-88l-16 55h-15l-10 -55h-46l18 108h87z" />
    <glyph glyph-name="ograve" unicode="&#xf2;" horiz-adv-x="348" 
d="M21 248l26 249h254l26 -249l-26 -248h-254zM107 248l17 -165h99l17 165l-17 166h-99zM122 709l132 -98l-42 -59l-132 98z" />
    <glyph glyph-name="oacute" unicode="&#xf3;" horiz-adv-x="348" 
d="M21 248l26 249h254l26 -249l-26 -248h-254zM107 248l17 -165h99l17 165l-17 166h-99zM107 611l131 98l42 -59l-130 -98z" />
    <glyph glyph-name="ocircumflex" unicode="&#xf4;" horiz-adv-x="348" 
d="M21 248l26 249h254l26 -249l-26 -248h-254zM107 248l17 -165h99l17 165l-17 166h-99zM196 564l-13 83h-20l-13 -83h-60l21 141h123l23 -141h-61z" />
    <glyph glyph-name="otilde" unicode="&#xf5;" horiz-adv-x="348" 
d="M21 248l26 249h254l26 -249l-26 -248h-254zM107 248l17 -165h99l17 165l-17 166h-99zM186 691l16 -55h16l10 55h46l-18 -108h-88l-16 55h-15l-10 -55h-46l18 108h87z" />
    <glyph glyph-name="odieresis" unicode="&#xf6;" horiz-adv-x="348" 
d="M21 248l26 249h254l26 -249l-26 -248h-254zM107 248l17 -165h99l17 165l-17 166h-99zM85 589v116h65v-116h-65zM199 589v116h64v-116h-64z" />
    <glyph glyph-name="divide" unicode="&#xf7;" horiz-adv-x="325" 
d="M309 385v-76h-293v76h293zM121 434v87h82v-87h-82zM121 172v87h82v-87h-82z" />
    <glyph glyph-name="oslash" unicode="&#xf8;" horiz-adv-x="348" 
d="M301 497l26 -249l-26 -248h-254l-26 248l26 249h254zM113 193l11 -110h99l17 162zM124 414l-15 -144l123 51l-9 93h-99z" />
    <glyph glyph-name="ugrave" unicode="&#xf9;" horiz-adv-x="366" 
d="M106 497l27 -419h97v419h88v-414h40v-83h-307l-32 497h87zM120 709l132 -98l-42 -59l-132 98z" />
    <glyph glyph-name="uacute" unicode="&#xfa;" horiz-adv-x="366" 
d="M106 497l27 -419h97v419h88v-414h40v-83h-307l-32 497h87zM104 611l131 98l42 -59l-130 -98z" />
    <glyph glyph-name="ucircumflex" unicode="&#xfb;" horiz-adv-x="366" 
d="M106 497l27 -419h97v419h88v-414h40v-83h-307l-32 497h87zM196 564l-13 83h-20l-13 -83h-60l21 141h123l23 -141h-61z" />
    <glyph glyph-name="udieresis" unicode="&#xfc;" horiz-adv-x="366" 
d="M106 497l27 -419h97v419h88v-414h40v-83h-307l-32 497h87zM84 589v116h65v-116h-65zM198 589v116h64v-116h-64z" />
    <glyph glyph-name="yacute" unicode="&#xfd;" horiz-adv-x="351" 
d="M80 -175v83h95l14 107h-101l-75 482h87l60 -406h39l53 406h87l-89 -672h-170zM108 611l131 98l42 -59l-130 -98z" />
    <glyph glyph-name="thorn" unicode="&#xfe;" horiz-adv-x="350" 
d="M123 0v-175h-87v905h87v-233h179l26 -249l-26 -248h-179zM241 248l-17 166h-101v-331h101z" />
    <glyph glyph-name="ydieresis" unicode="&#xff;" horiz-adv-x="351" 
d="M80 -175v83h95l14 107h-101l-75 482h87l60 -406h39l53 406h87l-89 -672h-170zM88 589v116h65v-116h-65zM202 589v116h64v-116h-64z" />
    <glyph glyph-name="dotlessi" unicode="&#x131;" horiz-adv-x="187" 
d="M15 414v83h131v-497h-87v414h-44z" />
    <glyph glyph-name="IJ" unicode="&#x132;" horiz-adv-x="484" 
d="M54 0v713h92v-713h-92zM352 228v485h92v-485l-26 -228h-206v88h124z" />
    <glyph glyph-name="ij" unicode="&#x133;" horiz-adv-x="373" 
d="M15 414v83h131v-497h-87v414h-44zM52 580v125h89v-125h-89zM239 580v125h89v-125h-89zM202 414v83h131v-510l-18 -162h-124v83h46l9 80v426h-44z" />
    <glyph glyph-name="Lslash" unicode="&#x141;" horiz-adv-x="336" 
d="M21 286l-18 74l55 20v333h93v-300l113 40l19 -75l-132 -46v-244h175v-88h-268v299z" />
    <glyph glyph-name="lslash" unicode="&#x142;" horiz-adv-x="242" 
d="M26 304l-23 77l75 31v318h87v-282l50 21l24 -77l-74 -31v-361h-87v325z" />
    <glyph glyph-name="OE" unicode="&#x152;" horiz-adv-x="572" 
d="M60 0l-38 357l38 356h488v-89h-181v-209h157v-84h-157v-243h181v-88h-488zM140 84h137v544h-137l-29 -271z" />
    <glyph glyph-name="oe" unicode="&#x153;" horiz-adv-x="503" 
d="M456 497l26 -245l-183 -47v-122h173v-83h-425l-26 248l26 249h409zM107 248l17 -165h92v331h-92zM299 418v-130l95 25l-11 105h-84z" />
    <glyph glyph-name="Scaron" unicode="&#x160;" horiz-adv-x="325" 
d="M40 0v86h150l18 165l-183 215l29 247h224v-86h-146l-15 -126l184 -218l-32 -283h-229zM149 849l8 -36h30l8 36h61l-22 -94h-123l-23 94h61z" />
    <glyph glyph-name="scaron" unicode="&#x161;" horiz-adv-x="274" 
d="M21 286l22 211h193v-83h-120l-9 -82l146 -107l-23 -225h-196v83h123l10 97zM116 705l13 -83h21l12 83h61l-22 -141h-123l-22 141h60z" />
    <glyph glyph-name="Ydieresis" unicode="&#x178;" horiz-adv-x="392" 
d="M103 713l73 -359h39l73 359h86l-91 -442h-44v-271h-89v271h-44l-89 442h86zM107 755v102h65v-102h-65zM220 755v102h65v-102h-65z" />
    <glyph glyph-name="Zcaron" unicode="&#x17d;" horiz-adv-x="332" 
d="M27 624v89h284v-146l-202 -440v-39h203v-88h-290v146l203 439h-1v39h-197zM148 849l8 -36h30l8 36h61l-22 -94h-123l-23 94h61z" />
    <glyph glyph-name="zcaron" unicode="&#x17e;" horiz-adv-x="285" 
d="M24 414v83h244v-124l-157 -265v-25h158v-83h-245v123l157 263v28h-157zM126 705l13 -83h21l12 83h61l-22 -141h-123l-22 141h60z" />
    <glyph glyph-name="longs" unicode="&#x17f;" horiz-adv-x="195" 
d="M5 414v83h50l20 183h169v-76h-90l-13 -122v-482h-87v414h-49z" />
    <glyph glyph-name="florin" unicode="&#x192;" horiz-adv-x="423" 
d="M350 713v-82h-68l-14 -140h82v-82h-91l-61 -584h-149v83h72l52 501h-50v82h59l23 222h145z" />
    <glyph glyph-name="uni02BB" unicode="&#x2bb;" horiz-adv-x="114" 
d="M107 730l-27 -271h-68l28 271h67z" />
    <glyph glyph-name="afii57929" unicode="&#x2bc;" horiz-adv-x="114" 
d="M10 442l27 271h69l-29 -271h-67z" />
    <glyph glyph-name="circumflex" unicode="&#x2c6;" horiz-adv-x="164" 
d="M105 564l-13 83h-20l-13 -83h-60l21 141h123l23 -141h-61z" />
    <glyph glyph-name="caron" unicode="&#x2c7;" horiz-adv-x="164" 
d="M59 705l13 -83h21l12 83h61l-22 -141h-123l-22 141h60z" />
    <glyph glyph-name="uni02C9" unicode="&#x2c9;" horiz-adv-x="164" 
d="M166 671v-68h-168v68h168z" />
    <glyph glyph-name="breve" unicode="&#x2d8;" horiz-adv-x="164" 
d="M99 622l6 83h61l-11 -141h-146l-10 141h60l6 -83h34z" />
    <glyph glyph-name="dotaccent" unicode="&#x2d9;" horiz-adv-x="164" 
d="M38 580v125h89v-125h-89z" />
    <glyph glyph-name="ring" unicode="&#x2da;" horiz-adv-x="164" 
d="M21 550l-18 86l18 89h123l17 -89l-17 -86h-123zM109 636l-9 42h-36l-8 -42l8 -40h37z" />
    <glyph glyph-name="ogonek" unicode="&#x2db;" horiz-adv-x="164" 
d="M47 0h69l-14 -71l5 -23h59v-81h-114l-20 104z" />
    <glyph glyph-name="tilde" unicode="&#x2dc;" horiz-adv-x="164" 
d="M93 691l16 -55h16l10 55h46l-18 -108h-88l-16 55h-15l-10 -55h-46l18 108h87z" />
    <glyph glyph-name="hungarumlaut" unicode="&#x2dd;" horiz-adv-x="164" 
d="M-21 590l93 126l51 -39l-92 -125zM96 591l93 126l52 -39l-93 -126z" />
    <glyph glyph-name="gravecomb" unicode="&#x300;" horiz-adv-x="1" 
d="M-134 709l132 -98l-42 -59l-132 98z" />
    <glyph glyph-name="acutecomb" unicode="&#x301;" horiz-adv-x="1" 
d="M-150 611l131 98l42 -59l-130 -98z" />
    <glyph glyph-name="uni0302" unicode="&#x302;" horiz-adv-x="1" 
d="M-58 564l-13 83h-20l-13 -83h-60l21 141h123l23 -141h-61z" />
    <glyph glyph-name="tildecomb" unicode="&#x303;" horiz-adv-x="1" 
d="M-70 691l16 -55h16l10 55h46l-18 -108h-88l-16 55h-15l-10 -55h-46l18 108h87z" />
    <glyph glyph-name="uni0304" unicode="&#x304;" horiz-adv-x="1" 
d="M3 671v-68h-168v68h168z" />
    <glyph glyph-name="uni0305" unicode="&#x305;" horiz-adv-x="1" 
d="M1 841v-79h-352v79h352z" />
    <glyph glyph-name="uni0306" unicode="&#x306;" horiz-adv-x="1" 
d="M-64 622l6 83h61l-11 -141h-146l-10 141h60l6 -83h34z" />
    <glyph glyph-name="uni0307" unicode="&#x307;" horiz-adv-x="1" 
d="M-125 580v125h89v-125h-89z" />
    <glyph glyph-name="uni030A" unicode="&#x30a;" horiz-adv-x="1" 
d="M-142 550l-18 86l18 89h123l17 -89l-17 -86h-123zM-54 636l-9 42h-36l-8 -42l8 -40h37z" />
    <glyph glyph-name="uni030B" unicode="&#x30b;" horiz-adv-x="1" 
d="M-184 590l93 126l51 -39l-92 -125zM-67 591l93 126l52 -39l-93 -126z" />
    <glyph glyph-name="uni030C" unicode="&#x30c;" horiz-adv-x="1" 
d="M-104 705l13 -83h21l12 83h61l-22 -141h-123l-22 141h60z" />
    <glyph glyph-name="Delta" unicode="&#x394;" horiz-adv-x="398" 
d="M12 0l85 713h205l84 -713h-374zM174 626l-64 -538h178l-64 538h-50z" />
    <glyph glyph-name="Omega" unicode="&#x3a9;" horiz-adv-x="420" 
d="M408 88v-88h-157v232l47 212l-19 181h-138l-20 -181l48 -212v-232h-157v88h68v137l-48 214l30 274h296l30 -274l-48 -214v-137h68z" />
    <glyph glyph-name="mu" unicode="&#x3bc;" horiz-adv-x="366" 
d="M116 497v-419h117v419h85v-414h40v-83h-242v-159h-84v656h84z" />
    <glyph glyph-name="pi" unicode="&#x3c0;" horiz-adv-x="371" 
d="M8 0v83h46l5 76v255h-51v83h356v-83h-49v-414h-87v414h-82v-255l-10 -159h-128z" />
    <glyph glyph-name="uni1E9E" unicode="&#x1e9e;" horiz-adv-x="380" 
d="M160 0v84h114v131l-91 98v101l62 118l-11 96h-101l-19 -175v-453h-89v453l28 260h260l23 -196l-64 -122v-42l90 -99v-254h-202z" />
    <glyph glyph-name="uni2007" unicode="&#x2007;" horiz-adv-x="325" 
 />
    <glyph glyph-name="uni2008" unicode="&#x2008;" horiz-adv-x="164" 
 />
    <glyph glyph-name="uni200B" unicode="&#x200b;" horiz-adv-x="0" 
 />
    <glyph glyph-name="uni2010" unicode="&#x2010;" horiz-adv-x="201" 
d="M16 229v82h171v-82h-171z" />
    <glyph glyph-name="endash" unicode="&#x2013;" horiz-adv-x="305" 
d="M27 229v82h251v-82h-251z" />
    <glyph glyph-name="emdash" unicode="&#x2014;" horiz-adv-x="371" 
d="M27 229v82h317v-82h-317z" />
    <glyph glyph-name="quoteleft" unicode="&#x2018;" horiz-adv-x="114" 
d="M107 730l-27 -271h-68l28 271h67z" />
    <glyph glyph-name="quoteright" unicode="&#x2019;" horiz-adv-x="114" 
d="M10 442l27 271h69l-29 -271h-67z" />
    <glyph glyph-name="quotesinglbase" unicode="&#x201a;" horiz-adv-x="114" 
d="M6 -163l26 271h69l-28 -271h-67z" />
    <glyph glyph-name="quotedblleft" unicode="&#x201c;" horiz-adv-x="216" 
d="M209 730l-27 -271h-68l28 271h67zM107 730l-27 -271h-68l28 271h67z" />
    <glyph glyph-name="quotedblright" unicode="&#x201d;" horiz-adv-x="216" 
d="M112 442l27 271h69l-29 -271h-67zM10 442l27 271h69l-29 -271h-67z" />
    <glyph glyph-name="quotedblbase" unicode="&#x201e;" horiz-adv-x="216" 
d="M108 -163l26 271h69l-28 -271h-67zM6 -163l26 271h69l-28 -271h-67z" />
    <glyph glyph-name="dagger" unicode="&#x2020;" horiz-adv-x="342" 
d="M208 -110h-74v533h-103v74h103v216h74v-216h103v-74h-103v-533z" />
    <glyph glyph-name="daggerdbl" unicode="&#x2021;" horiz-adv-x="342" 
d="M208 -110h-74v217h-103v74h103v241h-103v75h103v216h74v-216h103v-75h-103v-241h103v-74h-103v-217z" />
    <glyph glyph-name="bullet" unicode="&#x2022;" horiz-adv-x="219" 
d="M44 144l-13 126l13 126h131l13 -126l-13 -126h-131z" />
    <glyph glyph-name="ellipsis" unicode="&#x2026;" horiz-adv-x="448" 
d="M33 0v109h98v-109h-98zM175 0v109h98v-109h-98zM317 0v109h98v-109h-98z" />
    <glyph glyph-name="perthousand" unicode="&#x2030;" horiz-adv-x="761" 
d="M103 0l243 713h72l-243 -713h-72zM510 192l-22 -192h-161l-23 192l23 192h161zM447 192l-16 134h-47l-16 -134l16 -134h47zM214 521l-22 -192h-161l-23 192l23 192h161zM151 521l-16 134h-47l-16 -134l16 -134h47zM733 192l-22 -192h-161l-23 192l23 192h161zM670 192
l-16 134h-47l-16 -134l16 -134h47z" />
    <glyph glyph-name="guilsinglleft" unicode="&#x2039;" horiz-adv-x="156" 
d="M97 270l26 -151h-68l-27 151l27 153h68z" />
    <glyph glyph-name="guilsinglright" unicode="&#x203a;" horiz-adv-x="156" 
d="M33 119l27 151l-27 153h68l27 -153l-27 -151h-68z" />
    <glyph glyph-name="uni203D" unicode="&#x203d;" horiz-adv-x="315" 
d="M85 237l-65 476h75l40 -298l75 84l-14 134h-62v80h137l23 -237l-145 -164l10 -75h-74zM67 0v109h98v-109h-98z" />
    <glyph glyph-name="uni203E" unicode="&#x203e;" horiz-adv-x="352" 
d="M352 841v-79h-352v79h352z" />
    <glyph glyph-name="fraction" unicode="&#x2044;" horiz-adv-x="230" 
d="M-41 0l243 713h72l-243 -713h-72z" />
    <glyph glyph-name="uni2070" unicode="&#x2070;" 
d="M214 637l-22 -192h-161l-23 192l23 192h161zM151 637l-16 134h-47l-16 -134l16 -134h47z" />
    <glyph glyph-name="uni2074" unicode="&#x2074;" 
d="M218 582v-61h-28v-76h-60v76h-119v126l88 182h70l-99 -206v-41h60v68h60v-68h28z" />
    <glyph glyph-name="uni2075" unicode="&#x2075;" 
d="M27 445v66h111l6 54l-6 47l-118 10l22 207h152v-66h-97l-9 -86l105 -8l13 -104l-14 -120h-165z" />
    <glyph glyph-name="uni2076" unicode="&#x2076;" 
d="M34 445l-20 162l26 222h149v-62h-94l-10 -88h113l10 -83l-17 -151h-157zM76 607l14 -107h45l11 96l-3 26h-65z" />
    <glyph glyph-name="uni2077" unicode="&#x2077;" 
d="M145 743v20h-121v66h184v-94l-86 -290h-69z" />
    <glyph glyph-name="uni2078" unicode="&#x2078;" 
d="M16 704l14 125h161l15 -125l-22 -51l27 -71l-16 -137h-167l-17 137l27 72zM74 579l9 -76h57l9 76l-14 37h-48zM76 708l15 -35h40l14 35l-7 63h-54z" />
    <glyph glyph-name="uni2079" unicode="&#x2079;" 
d="M210 660l-26 -215h-152v61h97l12 94h-116l-11 90l16 139h160zM75 690l4 -34h68l1 4l-13 111h-50z" />
    <glyph glyph-name="uni207A" unicode="&#x207a;" horiz-adv-x="213" 
d="M133 537h-53v67h-61v54h61v67h53v-67h61v-54h-61v-67z" />
    <glyph glyph-name="uni207B" unicode="&#x207b;" 
d="M194 655v-54h-175v54h175z" />
    <glyph glyph-name="uni207C" unicode="&#x207c;" 
d="M185 696v-54h-157v54h157zM185 615v-53h-157v53h157z" />
    <glyph glyph-name="uni207D" unicode="&#x207d;" horiz-adv-x="120" 
d="M116 882v-54h-27l-8 -68v-258l8 -68h27v-54h-80l-14 122v258l14 122h80z" />
    <glyph glyph-name="uni207E" unicode="&#x207e;" horiz-adv-x="120" 
d="M100 760v-259l-13 -121h-83v53h29l8 68v259l-8 68h-30v54h84z" />
    <glyph glyph-name="uni207F" unicode="&#x207f;" 
d="M155 445l-16 217h-47v-217h-64v217h-25v58h196l20 -275h-64z" />
    <glyph glyph-name="uni2080" unicode="&#x2080;" 
d="M214 67l-22 -192h-161l-23 192l23 192h161zM151 67l-16 134h-47l-16 -134l16 -134h47z" />
    <glyph glyph-name="uni2081" unicode="&#x2081;" 
d="M41 -125v53h48v271h-49v60h112v-331h45v-53h-156z" />
    <glyph glyph-name="uni2082" unicode="&#x2082;" 
d="M208 -59v-66h-191v121l126 128l-8 70h-109v65h164l18 -151l-130 -133v-34h130z" />
    <glyph glyph-name="uni2083" unicode="&#x2083;" 
d="M29 -125v65h110l8 65l-17 37h-58v61h54l19 39l-7 52h-106v65h158l14 -119l-27 -55l32 -73l-17 -137h-163z" />
    <glyph glyph-name="uni2084" unicode="&#x2084;" 
d="M218 12v-61h-28v-76h-60v76h-119v126l88 182h70l-99 -206v-41h60v68h60v-68h28z" />
    <glyph glyph-name="uni2085" unicode="&#x2085;" 
d="M27 -125v66h111l6 54l-6 47l-118 10l22 207h152v-66h-97l-9 -86l105 -8l13 -104l-14 -120h-165z" />
    <glyph glyph-name="uni2086" unicode="&#x2086;" 
d="M34 -125l-20 162l26 222h149v-62h-94l-10 -88h113l10 -83l-17 -151h-157zM76 37l14 -107h45l11 96l-3 26h-65z" />
    <glyph glyph-name="uni2087" unicode="&#x2087;" 
d="M145 173v20h-121v66h184v-94l-86 -290h-69z" />
    <glyph glyph-name="uni2088" unicode="&#x2088;" 
d="M16 134l14 125h161l15 -125l-22 -51l27 -71l-16 -137h-167l-17 137l27 72zM74 9l9 -76h57l9 76l-14 37h-48zM76 138l15 -35h40l14 35l-7 63h-54z" />
    <glyph glyph-name="uni2089" unicode="&#x2089;" 
d="M210 90l-26 -215h-152v61h97l12 94h-116l-11 90l16 139h160zM75 120l4 -34h68l1 4l-13 111h-50z" />
    <glyph glyph-name="uni208A" unicode="&#x208a;" horiz-adv-x="213" 
d="M133 -33h-53v67h-61v54h61v67h53v-67h61v-54h-61v-67z" />
    <glyph glyph-name="uni208B" unicode="&#x208b;" horiz-adv-x="213" 
d="M194 85v-54h-175v54h175z" />
    <glyph glyph-name="uni208C" unicode="&#x208c;" horiz-adv-x="213" 
d="M185 126v-54h-157v54h157zM185 45v-53h-157v53h157z" />
    <glyph glyph-name="uni208D" unicode="&#x208d;" horiz-adv-x="120" 
d="M116 312v-54h-27l-8 -68v-258l8 -68h27v-54h-80l-14 122v258l14 122h80z" />
    <glyph glyph-name="uni208E" unicode="&#x208e;" horiz-adv-x="120" 
d="M100 190v-259l-13 -121h-83v53h29l8 68v259l-8 68h-30v54h84z" />
    <glyph glyph-name="franc" unicode="&#x20a3;" horiz-adv-x="423" 
d="M51 141v78h50v495h264v-89h-172v-213h152v-85h-152v-108h69v-78h-69v-141h-92v141h-50z" />
    <glyph glyph-name="lira" unicode="&#x20a4;" horiz-adv-x="423" 
d="M353 713v-88h-161l-14 -119v-49h141v-81h-141v-55h141v-81h-141v-153h218v-87h-361v87h58v419l25 207h235z" />
    <glyph glyph-name="peseta" unicode="&#x20a7;" horiz-adv-x="423" 
d="M19 448v77h37v186h283l22 -186h42v-77h-42l-22 -184h-201v-264h-82v448h-37zM138 634v-109h143l-14 109h-129zM138 448v-106h129l14 106h-143z" />
    <glyph glyph-name="dong" unicode="&#x20ab;" horiz-adv-x="423" 
d="M48 242l28 243h183v61h-88v74h88v109h81v-109h55v-74h-55v-469h49v-77h-313zM127 242l20 -165h112v331h-112zM389 -47v-68h-313v68h313z" />
    <glyph glyph-name="Euro" unicode="&#x20ac;" horiz-adv-x="423" 
d="M40 385v80h64l30 248h249v-87h-170l-19 -161h161l-9 -80h-162l-3 -29l3 -26h153l-9 -80h-134l19 -163h170v-87h-249l-30 250h-64v80h54l-3 26l3 29h-54z" />
    <glyph glyph-name="uni20B4" unicode="&#x20b4;" horiz-adv-x="423" 
d="M396 474v-80h-85l-73 -77h158v-79h-231l18 -151h169v-87h-247l-30 238h-49v79h101l69 77h-170v80h240l-21 154h-169v85h247l33 -239h40z" />
    <glyph glyph-name="afii61248" unicode="&#x2105;" horiz-adv-x="588" 
d="M348 0l-23 195l23 194h195l24 -194l-24 -195h-195zM97 0l243 713h72l-243 -713h-72zM45 324l-24 195l24 194h161v-66h-100l-16 -128l16 -129h100v-66h-161zM497 195l-16 131h-71l-16 -131l16 -133h71z" />
    <glyph glyph-name="afii61352" unicode="&#x2116;" horiz-adv-x="776" 
d="M42 0v713h187l108 -634h35v634h83v-713h-189l-109 631h-32v-631h-83zM755 519l-24 -195h-195l-24 195l24 194h195zM685 519l-16 131h-71l-16 -131l16 -132h71zM749 279v-76h-233v76h233z" />
    <glyph glyph-name="uni2117" unicode="&#x2117;" horiz-adv-x="502" 
d="M480 357l-38 -357h-383l-38 357l38 356h383zM379 70l31 287l-31 286h-258l-30 -286l30 -287h258zM227 299v-141h-69v396h184l13 -130l-13 -125h-115zM287 424l-7 68h-53v-134h53z" />
    <glyph glyph-name="uni2120" unicode="&#x2120;" horiz-adv-x="616" 
d="M351 324l-35 328h-19v-328h-64v389h137l35 -328h16l35 328h138v-389h-66v328h-18l-35 -328h-124zM22 324v65h95l9 69l-114 110l20 145h153v-64h-94l-7 -52l114 -111l-21 -162h-155z" />
    <glyph glyph-name="trademark" unicode="&#x2122;" horiz-adv-x="625" 
d="M361 324l-35 328h-19v-328h-65v389h138l34 -328h17l35 328h137v-389h-65v328h-18l-35 -328h-124zM5 648v65h210v-65h-68v-324h-74v324h-68z" />
    <glyph glyph-name="uni2126" unicode="&#x2126;" horiz-adv-x="420" 
d="M408 88v-88h-157v232l47 212l-19 181h-138l-20 -181l48 -212v-232h-157v88h68v137l-48 214l30 274h296l30 -274l-48 -214v-137h68z" />
    <glyph glyph-name="onethird" unicode="&#x2153;" horiz-adv-x="537" 
d="M107 0l243 713h72l-243 -713h-72zM325 0v65h110l8 65l-17 37h-58v61h54l19 39l-7 52h-106v65h158l14 -119l-27 -55l32 -73l-17 -137h-163zM41 329v53h48v271h-49v60h112v-331h45v-53h-156z" />
    <glyph glyph-name="twothirds" unicode="&#x2154;" horiz-adv-x="537" 
d="M107 0l243 713h72l-243 -713h-72zM325 0v65h110l8 65l-17 37h-58v61h54l19 39l-7 52h-106v65h158l14 -119l-27 -55l32 -73l-17 -137h-163zM208 395v-66h-191v121l126 128l-8 70h-109v65h164l18 -151l-130 -133v-34h130z" />
    <glyph glyph-name="uni2155" unicode="&#x2155;" horiz-adv-x="537" 
d="M107 0l243 713h72l-243 -713h-72zM323 0v66h111l6 54l-6 47l-118 10l22 207h152v-66h-97l-9 -86l105 -8l13 -104l-14 -120h-165zM41 329v53h48v271h-49v60h112v-331h45v-53h-156z" />
    <glyph glyph-name="uni2156" unicode="&#x2156;" horiz-adv-x="537" 
d="M107 0l243 713h72l-243 -713h-72zM323 0v66h111l6 54l-6 47l-118 10l22 207h152v-66h-97l-9 -86l105 -8l13 -104l-14 -120h-165zM208 395v-66h-191v121l126 128l-8 70h-109v65h164l18 -151l-130 -133v-34h130z" />
    <glyph glyph-name="uni2157" unicode="&#x2157;" horiz-adv-x="537" 
d="M107 0l243 713h72l-243 -713h-72zM323 0v66h111l6 54l-6 47l-118 10l22 207h152v-66h-97l-9 -86l105 -8l13 -104l-14 -120h-165zM29 329v65h110l8 65l-17 37h-58v61h54l19 39l-7 52h-106v65h158l14 -119l-27 -55l32 -73l-17 -137h-163z" />
    <glyph glyph-name="uni2158" unicode="&#x2158;" horiz-adv-x="537" 
d="M107 0l243 713h72l-243 -713h-72zM323 0v66h111l6 54l-6 47l-118 10l22 207h152v-66h-97l-9 -86l105 -8l13 -104l-14 -120h-165zM218 466v-61h-28v-76h-60v76h-119v126l88 182h70l-99 -206v-41h60v68h60v-68h28z" />
    <glyph glyph-name="uni2159" unicode="&#x2159;" horiz-adv-x="537" 
d="M107 0l243 713h72l-243 -713h-72zM330 0l-20 162l26 222h149v-62h-94l-10 -88h113l10 -83l-17 -151h-157zM372 162l14 -107h45l11 96l-3 26h-65zM41 329v53h48v271h-49v60h112v-331h45v-53h-156z" />
    <glyph glyph-name="uni215A" unicode="&#x215a;" horiz-adv-x="537" 
d="M107 0l243 713h72l-243 -713h-72zM330 0l-20 162l26 222h149v-62h-94l-10 -88h113l10 -83l-17 -151h-157zM372 162l14 -107h45l11 96l-3 26h-65zM27 329v66h111l6 54l-6 47l-118 10l22 207h152v-66h-97l-9 -86l105 -8l13 -104l-14 -120h-165z" />
    <glyph glyph-name="oneeighth" unicode="&#x215b;" horiz-adv-x="537" 
d="M107 0l243 713h72l-243 -713h-72zM312 259l14 125h161l15 -125l-22 -51l27 -71l-16 -137h-167l-17 137l27 72zM370 134l9 -76h57l9 76l-14 37h-48zM372 263l15 -35h40l14 35l-7 63h-54zM41 329v53h48v271h-49v60h112v-331h45v-53h-156z" />
    <glyph glyph-name="threeeighths" unicode="&#x215c;" horiz-adv-x="537" 
d="M107 0l243 713h72l-243 -713h-72zM312 259l14 125h161l15 -125l-22 -51l27 -71l-16 -137h-167l-17 137l27 72zM370 134l9 -76h57l9 76l-14 37h-48zM372 263l15 -35h40l14 35l-7 63h-54zM29 329v65h110l8 65l-17 37h-58v61h54l19 39l-7 52h-106v65h158l14 -119l-27 -55
l32 -73l-17 -137h-163z" />
    <glyph glyph-name="fiveeighths" unicode="&#x215d;" horiz-adv-x="537" 
d="M107 0l243 713h72l-243 -713h-72zM312 259l14 125h161l15 -125l-22 -51l27 -71l-16 -137h-167l-17 137l27 72zM370 134l9 -76h57l9 76l-14 37h-48zM372 263l15 -35h40l14 35l-7 63h-54zM27 329v66h111l6 54l-6 47l-118 10l22 207h152v-66h-97l-9 -86l105 -8l13 -104
l-14 -120h-165z" />
    <glyph glyph-name="seveneighths" unicode="&#x215e;" horiz-adv-x="537" 
d="M93 0l243 713h72l-243 -713h-72zM312 259l14 125h161l15 -125l-22 -51l27 -71l-16 -137h-167l-17 137l27 72zM370 134l9 -76h57l9 76l-14 37h-48zM372 263l15 -35h40l14 35l-7 63h-54zM168 627v20h-121v66h184v-94l-86 -290h-69z" />
    <glyph glyph-name="uni215F" unicode="&#x215f;" horiz-adv-x="378" 
d="M107 0l243 713h72l-243 -713h-72zM41 329v53h48v271h-49v60h112v-331h45v-53h-156z" />
    <glyph glyph-name="partialdiff" unicode="&#x2202;" horiz-adv-x="366" 
d="M318 415l-45 -415h-233l-19 177l29 278h176l-19 176h-65v82h143zM107 177l11 -94h77l31 289h-98z" />
    <glyph glyph-name="uni2206" unicode="&#x2206;" horiz-adv-x="398" 
d="M12 0l85 713h205l84 -713h-374zM174 626l-64 -538h178l-64 538h-50z" />
    <glyph glyph-name="product" unicode="&#x220f;" horiz-adv-x="429" 
d="M266 -175v797h-104v-797h-94v797h-59v91h410v-91h-58v-797h-95z" />
    <glyph glyph-name="summation" unicode="&#x2211;" horiz-adv-x="316" 
d="M292 713v-85h-182v-47h-1l119 -263v-72l-119 -295v-41h178v-85h-268v140l119 297v43l-119 264v144h273z" />
    <glyph glyph-name="minus" unicode="&#x2212;" horiz-adv-x="325" 
d="M295 385v-76h-265v76h265z" />
    <glyph glyph-name="uni2215" unicode="&#x2215;" horiz-adv-x="230" 
d="M-2 0l162 713h73l-162 -713h-73z" />
    <glyph glyph-name="uni2219" unicode="&#x2219;" horiz-adv-x="325" 
d="M97 144l-13 126l13 126h131l13 -126l-13 -126h-131z" />
    <glyph glyph-name="radical" unicode="&#x221a;" horiz-adv-x="409" 
d="M172 396l44 -318h34l87 763h83l-96 -841h-184l-45 321h-74v75h151z" />
    <glyph glyph-name="uni221B" unicode="&#x221b;" horiz-adv-x="402" 
d="M172 396l44 -318h34l87 763h83l-96 -841h-184l-45 321h-74v75h151zM25 445v65h110l8 65l-17 37h-58v61h54l19 39l-7 52h-106v65h158l14 -119l-27 -55l32 -73l-17 -137h-163z" />
    <glyph glyph-name="uni221C" unicode="&#x221c;" horiz-adv-x="403" 
d="M167 396l44 -318h34l87 763h83l-96 -841h-184l-45 321h-74v75h151zM220 582v-61h-28v-76h-60v76h-119v126l88 182h70l-99 -206v-41h60v68h60v-68h28z" />
    <glyph glyph-name="infinity" unicode="&#x221e;" horiz-adv-x="402" 
d="M240 201l-40 75l-39 -75h-133l-17 143l17 143h133l39 -75l40 75h133l17 -143l-17 -143h-133zM316 344l-8 70h-35l-37 -70l37 -70h35zM86 344l8 -70h34l37 70l-37 70h-34z" />
    <glyph glyph-name="integral" unicode="&#x222b;" horiz-adv-x="198" 
d="M-21 -175v83h66l11 80v648l23 164h139v-83h-64l-11 -81v-648l-23 -163h-141z" />
    <glyph glyph-name="approxequal" unicode="&#x2248;" horiz-adv-x="325" 
d="M142 365l-9 43h-40l-8 -43h-60l18 106h139l9 -44h39l8 44h61l-18 -106h-139zM182 329l9 -43h39l8 43h61l-18 -104h-139l-10 43h-39l-8 -43h-60l18 104h139z" />
    <glyph glyph-name="notequal" unicode="&#x2260;" horiz-adv-x="325" 
d="M283 319v-75h-107l-14 -68h-72l14 68h-63v75h79l12 56h-91v75h107l14 67h72l-14 -67h63v-75h-79l-12 -56h91z" />
    <glyph glyph-name="lessequal" unicode="&#x2264;" horiz-adv-x="325" 
d="M231 230l-188 158l188 159l49 -60l-117 -98l117 -99zM279 109h-234v77h234v-77z" />
    <glyph glyph-name="greaterequal" unicode="&#x2265;" horiz-adv-x="325" 
d="M94 547l187 -159l-187 -158l-51 60l117 99l-116 98zM279 109h-235v77h235v-77z" />
    <glyph glyph-name="dotmath" unicode="&#x22c5;" horiz-adv-x="325" 
d="M225 348l-9 -78h-107l-10 78l10 78h107z" />
    <glyph glyph-name="lozenge" unicode="&#x25ca;" horiz-adv-x="289" 
d="M214 497l39 -195l-39 -195h-139l-39 195l39 195h139zM183 302l-26 131h-25l-26 -131l26 -132h25z" />
    <glyph glyph-name="uni2A7D" unicode="&#x2a7d;" horiz-adv-x="325" 
d="M231 230l-188 158l188 159l49 -60l-117 -98l117 -99zM228 63l-187 157l48 57l187 -158z" />
    <glyph glyph-name="uni2A7E" unicode="&#x2a7e;" horiz-adv-x="325" 
d="M92 547l187 -159l-187 -158l-51 60l117 99l-117 98zM280 220l-187 -157l-47 56l187 158z" />
    <glyph glyph-name="uni2E18" unicode="&#x2e18;" horiz-adv-x="315" 
d="M230 301l65 -476h-75l-40 298l-75 -84l14 -134h62v-80h-137l-23 238l145 164l-10 74h74zM241 497v-110h-97v110h97z" />
    <glyph glyph-name="uniFB00" unicode="&#xfb00;" horiz-adv-x="424" 
d="M251 0v414h-110v-414h-87v414h-49v83h50l20 183h150v-76h-71l-11 -107h109l21 183h159v-76h-80l-12 -107h83v-83h-85v-414h-87z" />
    <glyph glyph-name="uniFB01" unicode="&#xfb01;" horiz-adv-x="371" 
d="M243 0v414h-102v-414h-87v414h-49v83h50l21 187h229v-82h-151l-11 -105h187v-497h-87z" />
    <glyph glyph-name="uniFB02" unicode="&#xfb02;" horiz-adv-x="385" 
d="M255 0v609h-100l-12 -112h65v-83h-67v-414h-87v414h-49v83h50l21 187h266v-684h-87z" />
    <glyph glyph-name="uniFB03" unicode="&#xfb03;" horiz-adv-x="569" 
d="M251 0v414h-110v-414h-87v414h-49v83h50l20 183h150v-76h-71l-12 -107h110l21 187h229v-82h-151l-12 -105h189v-497h-87v414h-103v-414h-87z" />
    <glyph glyph-name="uniFB04" unicode="&#xfb04;" horiz-adv-x="582" 
d="M251 0v414h-110v-414h-87v414h-49v83h50l20 183h150v-76h-71l-11 -107h109l21 187h266v-684h-87v609h-100l-12 -112h65v-83h-67v-414h-87z" />
    <glyph glyph-name="glyph336" horiz-adv-x="164" 
d="M52 580l10 150h63l-13 -150h-60z" />
    <glyph glyph-name="glyph337" horiz-adv-x="164" 
d="M99 633l6 72h61l-11 -130h-146l-10 130h60l5 -72h35z" />
    <glyph glyph-name="numbersign.inferior" 
d="M10 -22v53h37l7 63h-44v53h50l13 112h48l-44 -384h-47l11 103h-31zM212 147v-53h-37l-7 -63h44v-53h-50l-12 -103h-47l43 384h48l-13 -112h31z" />
    <glyph glyph-name="dollar.inferior" 
d="M25 -90v61h108l8 56l-127 67l19 135h53v62h60v-62h48v-61h-107l-5 -40l126 -67l-21 -151h-47v-63h-60v63h-55z" />
    <glyph glyph-name="comma.inferior" horiz-adv-x="102" 
d="M15 -210l12 161h53l-18 -161h-47z" />
    <glyph glyph-name="period.inferior" horiz-adv-x="102" 
d="M16 -125v75h69v-75h-69z" />
    <glyph glyph-name="n.inferior" horiz-adv-x="227" 
d="M155 -125l-16 217h-47v-217h-64v217h-25v58h196l20 -275h-64z" />
    <glyph glyph-name="cent.inferior" 
d="M26 67l17 138h50v59h60v-59h40v-58h-93l-10 -80l10 -79h93v-58h-39v-55h-62v55h-49z" />
    <glyph glyph-name="sterling.inferior" 
d="M193 259v-58h-86l-7 -57v-42h76v-60h-76v-107h111v-60h-199v60h25v209l16 115h140z" />
    <glyph glyph-name="currency.inferior" 
d="M209 118l-21 -23l7 -45l-8 -46l22 -22l-35 -39l-26 27h-74l-25 -27l-36 39l22 23l-7 45l7 44l-22 24l36 39l24 -27h76l25 27zM78 50l5 -30h57l5 30l-5 29h-57z" />
    <glyph glyph-name="yen.inferior" 
d="M68 259l31 -190h25l31 190h62l-31 -190h20v-52h-63v-26h63v-52h-63v-64h-64v64h-62v52h62v26h-62v52h20l-31 190h62z" />
    <glyph glyph-name="franc.inferior" 
d="M18 -56v52h27v263h164v-64h-95v-86h84v-62h-84v-51h27v-52h-27v-69h-69v69h-27z" />
    <glyph glyph-name="lira.inferior" 
d="M193 259v-58h-86l-7 -57v-16h79v-52h-79v-19h79v-52h-79v-70h111v-60h-199v60h25v209l16 115h140z" />
    <glyph glyph-name="peseta.inferior" 
d="M7 106v52h16v101h165l13 -101h20v-52h-20l-13 -99h-100v-132h-65v231h-16zM88 202v-44h50l-5 44h-45zM88 106v-42h44l6 42h-50z" />
    <glyph glyph-name="Euro.inferior" horiz-adv-x="224" 
d="M13 78v54h30l15 127h150v-66h-88l-8 -61h82l-7 -54h-82l-1 -11l1 -10h80l-6 -53h-67l8 -63h88v-66h-150l-16 129h-29v53h23l-1 10l1 11h-23z" />
    <glyph glyph-name="numbersign.superior" 
d="M10 548v53h37l7 63h-44v53h50l13 112h48l-44 -384h-47l11 103h-31zM212 717v-53h-37l-7 -63h44v-53h-50l-12 -103h-47l43 384h48l-13 -112h31z" />
    <glyph glyph-name="dollar.superior" 
d="M25 480v61h108l8 56l-127 67l19 135h53v62h60v-62h48v-61h-107l-5 -40l126 -67l-21 -151h-47v-63h-60v63h-55z" />
    <glyph glyph-name="comma.superior" horiz-adv-x="102" 
d="M15 360l12 161h53l-18 -161h-47z" />
    <glyph glyph-name="period.superior" horiz-adv-x="102" 
d="M16 445v75h69v-75h-69z" />
    <glyph glyph-name="cent.superior" 
d="M26 637l17 138h50v59h60v-59h40v-58h-93l-10 -80l10 -79h93v-58h-39v-55h-62v55h-49z" />
    <glyph glyph-name="sterling.superior" 
d="M193 829v-58h-86l-7 -57v-42h76v-60h-76v-107h111v-60h-199v60h25v209l16 115h140z" />
    <glyph glyph-name="currency.superior" 
d="M209 688l-21 -23l7 -45l-8 -46l22 -22l-35 -39l-26 27h-74l-25 -27l-36 39l22 23l-7 45l7 44l-22 24l36 39l24 -27h76l25 27zM78 620l5 -30h57l5 30l-5 29h-57z" />
    <glyph glyph-name="yen.superior" 
d="M68 829l31 -190h25l31 190h62l-31 -190h20v-52h-63v-26h63v-52h-63v-64h-64v64h-62v52h62v26h-62v52h20l-31 190h62z" />
    <glyph glyph-name="franc.superior" 
d="M18 514v52h27v263h164v-64h-95v-86h84v-62h-84v-51h27v-52h-27v-69h-69v69h-27z" />
    <glyph glyph-name="lira.superior" 
d="M193 829v-58h-86l-7 -57v-16h79v-52h-79v-19h79v-52h-79v-70h111v-60h-199v60h25v209l16 115h140z" />
    <glyph glyph-name="peseta.superior" 
d="M7 676v52h16v101h165l13 -101h20v-52h-20l-13 -99h-100v-132h-65v231h-16zM88 772v-44h50l-5 44h-45zM88 676v-42h44l6 42h-50z" />
    <glyph glyph-name="Euro.superior" 
d="M13 648v54h30l15 127h150v-66h-88l-8 -61h82l-7 -54h-82l-1 -11l1 -10h80l-6 -53h-67l8 -63h88v-66h-150l-16 129h-29v53h23l-1 10l1 11h-23z" />
    <glyph glyph-name="numbersign.numr" horiz-adv-x="225" 
d="M10 432v53h37l7 63h-44v53h50l13 112h48l-44 -384h-47l11 103h-31zM212 601v-53h-37l-7 -63h44v-53h-50l-12 -103h-47l43 384h48l-13 -112h31z" />
    <glyph glyph-name="dollar.numr" horiz-adv-x="225" 
d="M25 364v61h108l8 56l-127 67l19 135h53v62h60v-62h48v-61h-107l-5 -40l126 -67l-21 -151h-47v-63h-60v63h-55z" />
    <glyph glyph-name="parenleft.numr" horiz-adv-x="121" 
d="M116 766v-54h-27l-8 -68v-258l8 -68h27v-54h-80l-14 122v258l14 122h80z" />
    <glyph glyph-name="parenright.numr" horiz-adv-x="121" 
d="M100 644v-259l-13 -121h-83v53h29l8 68v259l-8 68h-30v54h84z" />
    <glyph glyph-name="plus.numr" horiz-adv-x="225" 
d="M133 421h-53v67h-61v54h61v67h53v-67h61v-54h-61v-67z" />
    <glyph glyph-name="comma.numr" horiz-adv-x="103" 
d="M15 244l12 161h53l-18 -161h-47z" />
    <glyph glyph-name="period.numr" horiz-adv-x="103" 
d="M16 329v75h69v-75h-69z" />
    <glyph glyph-name="zero.numr" 
d="M214 521l-22 -192h-161l-23 192l23 192h161zM151 521l-16 134h-47l-16 -134l16 -134h47z" />
    <glyph glyph-name="one.numr" 
d="M41 329v53h48v271h-49v60h112v-331h45v-53h-156z" />
    <glyph glyph-name="two.numr" 
d="M208 395v-66h-191v121l126 128l-8 70h-109v65h164l18 -151l-130 -133v-34h130z" />
    <glyph glyph-name="three.numr" 
d="M29 329v65h110l8 65l-17 37h-58v61h54l19 39l-7 52h-106v65h158l14 -119l-27 -55l32 -73l-17 -137h-163z" />
    <glyph glyph-name="four.numr" 
d="M218 466v-61h-28v-76h-60v76h-119v126l88 182h70l-99 -206v-41h60v68h60v-68h28z" />
    <glyph glyph-name="five.numr" 
d="M27 329v66h111l6 54l-6 47l-118 10l22 207h152v-66h-97l-9 -86l105 -8l13 -104l-14 -120h-165z" />
    <glyph glyph-name="six.numr" 
d="M34 329l-20 162l26 222h149v-62h-94l-10 -88h113l10 -83l-17 -151h-157zM76 491l14 -107h45l11 96l-3 26h-65z" />
    <glyph glyph-name="seven.numr" 
d="M145 627v20h-121v66h184v-94l-86 -290h-69z" />
    <glyph glyph-name="eight.numr" 
d="M16 588l14 125h161l15 -125l-22 -51l27 -71l-16 -137h-167l-17 137l27 72zM74 463l9 -76h57l9 76l-14 37h-48zM76 592l15 -35h40l14 35l-7 63h-54z" />
    <glyph glyph-name="nine.numr" 
d="M210 544l-26 -215h-152v61h97l12 94h-116l-11 90l16 139h160zM75 574l4 -34h68l1 4l-13 111h-50z" />
    <glyph glyph-name="equal.numr" horiz-adv-x="213" 
d="M185 580v-54h-157v54h157zM185 499v-53h-157v53h157z" />
    <glyph glyph-name="n.numr" horiz-adv-x="227" 
d="M155 329l-16 217h-47v-217h-64v217h-25v58h196l20 -275h-64z" />
    <glyph glyph-name="cent.numr" 
d="M26 521l17 138h50v59h60v-59h40v-58h-93l-10 -80l10 -79h93v-58h-39v-55h-62v55h-49z" />
    <glyph glyph-name="sterling.numr" 
d="M193 713v-58h-86l-7 -57v-42h76v-60h-76v-107h111v-60h-199v60h25v209l16 115h140z" />
    <glyph glyph-name="currency.numr" 
d="M209 572l-21 -23l7 -45l-8 -46l22 -22l-35 -39l-26 27h-74l-25 -27l-36 39l22 23l-7 45l7 44l-22 24l36 39l24 -27h76l25 27zM78 504l5 -30h57l5 30l-5 29h-57z" />
    <glyph glyph-name="yen.numr" 
d="M68 713l31 -190h25l31 190h62l-31 -190h20v-52h-63v-26h63v-52h-63v-64h-64v64h-62v52h62v26h-62v52h20l-31 190h62z" />
    <glyph glyph-name="franc.numr" 
d="M18 398v52h27v263h164v-64h-95v-86h84v-62h-84v-51h27v-52h-27v-69h-69v69h-27z" />
    <glyph glyph-name="lira.numr" 
d="M193 713v-58h-86l-7 -57v-16h79v-52h-79v-19h79v-52h-79v-70h111v-60h-199v60h25v209l16 115h140z" />
    <glyph glyph-name="peseta.numr" 
d="M7 560v52h16v101h165l13 -101h20v-52h-20l-13 -99h-100v-132h-65v231h-16zM88 656v-44h50l-5 44h-45zM88 560v-42h44l6 42h-50z" />
    <glyph glyph-name="Euro.numr" horiz-adv-x="224" 
d="M13 532v54h30l15 127h150v-66h-88l-8 -61h82l-7 -54h-82l-1 -11l1 -10h80l-6 -53h-67l8 -63h88v-66h-150l-16 129h-29v53h23l-1 10l1 11h-23z" />
    <glyph glyph-name="minus.numr" horiz-adv-x="213" 
d="M194 539v-54h-175v54h175z" />
    <glyph glyph-name="numbersign.dnom" 
d="M10 103v53h37l7 63h-44v53h50l13 112h48l-44 -384h-47l11 103h-31zM212 272v-53h-37l-7 -63h44v-53h-50l-12 -103h-47l43 384h48l-13 -112h31z" />
    <glyph glyph-name="dollar.dnom" 
d="M25 35v61h108l8 56l-127 67l19 135h53v62h60v-62h48v-61h-107l-5 -40l126 -67l-21 -151h-47v-63h-60v63h-55z" />
    <glyph glyph-name="parenleft.dnom" horiz-adv-x="120" 
d="M116 437v-54h-27l-8 -68v-258l8 -68h27v-54h-80l-14 122v258l14 122h80z" />
    <glyph glyph-name="parenright.dnom" horiz-adv-x="120" 
d="M100 315v-259l-13 -121h-83v53h29l8 68v259l-8 68h-30v54h84z" />
    <glyph glyph-name="plus.dnom" horiz-adv-x="213" 
d="M133 92h-53v67h-61v54h61v67h53v-67h61v-54h-61v-67z" />
    <glyph glyph-name="comma.dnom" horiz-adv-x="102" 
d="M15 -85l12 161h53l-18 -161h-47z" />
    <glyph glyph-name="period.dnom" horiz-adv-x="102" 
d="M16 0v75h69v-75h-69z" />
    <glyph glyph-name="zero.dnom" 
d="M214 192l-22 -192h-161l-23 192l23 192h161zM151 192l-16 134h-47l-16 -134l16 -134h47z" />
    <glyph glyph-name="one.dnom" 
d="M41 0v53h48v271h-49v60h112v-331h45v-53h-156z" />
    <glyph glyph-name="two.dnom" 
d="M208 66v-66h-191v121l126 128l-8 70h-109v65h164l18 -151l-130 -133v-34h130z" />
    <glyph glyph-name="three.dnom" 
d="M29 0v65h110l8 65l-17 37h-58v61h54l19 39l-7 52h-106v65h158l14 -119l-27 -55l32 -73l-17 -137h-163z" />
    <glyph glyph-name="four.dnom" 
d="M218 137v-61h-28v-76h-60v76h-119v126l88 182h70l-99 -206v-41h60v68h60v-68h28z" />
    <glyph glyph-name="five.dnom" 
d="M27 0v66h111l6 54l-6 47l-118 10l22 207h152v-66h-97l-9 -86l105 -8l13 -104l-14 -120h-165z" />
    <glyph glyph-name="six.dnom" 
d="M34 0l-20 162l26 222h149v-62h-94l-10 -88h113l10 -83l-17 -151h-157zM76 162l14 -107h45l11 96l-3 26h-65z" />
    <glyph glyph-name="seven.dnom" 
d="M145 298v20h-121v66h184v-94l-86 -290h-69z" />
    <glyph glyph-name="eight.dnom" 
d="M16 259l14 125h161l15 -125l-22 -51l27 -71l-16 -137h-167l-17 137l27 72zM74 134l9 -76h57l9 76l-14 37h-48zM76 263l15 -35h40l14 35l-7 63h-54z" />
    <glyph glyph-name="nine.dnom" 
d="M210 215l-26 -215h-152v61h97l12 94h-116l-11 90l16 139h160zM75 245l4 -34h68l1 4l-13 111h-50z" />
    <glyph glyph-name="equal.dnom" horiz-adv-x="213" 
d="M185 251v-54h-157v54h157zM185 170v-53h-157v53h157z" />
    <glyph glyph-name="n.dnom" horiz-adv-x="227" 
d="M155 0l-16 217h-47v-217h-64v217h-25v58h196l20 -275h-64z" />
    <glyph glyph-name="cent.dnom" 
d="M26 192l17 138h50v59h60v-59h40v-58h-93l-10 -80l10 -79h93v-58h-39v-55h-62v55h-49z" />
    <glyph glyph-name="sterling.dnom" 
d="M193 384v-58h-86l-7 -57v-42h76v-60h-76v-107h111v-60h-199v60h25v209l16 115h140z" />
    <glyph glyph-name="currency.dnom" 
d="M209 243l-21 -23l7 -45l-8 -46l22 -22l-35 -39l-26 27h-74l-25 -27l-36 39l22 23l-7 45l7 44l-22 24l36 39l24 -27h76l25 27zM78 175l5 -30h57l5 30l-5 29h-57z" />
    <glyph glyph-name="yen.dnom" 
d="M68 384l31 -190h25l31 190h62l-31 -190h20v-52h-63v-26h63v-52h-63v-64h-64v64h-62v52h62v26h-62v52h20l-31 190h62z" />
    <glyph glyph-name="franc.dnom" 
d="M18 69v52h27v263h164v-64h-95v-86h84v-62h-84v-51h27v-52h-27v-69h-69v69h-27z" />
    <glyph glyph-name="lira.dnom" 
d="M193 384v-58h-86l-7 -57v-16h79v-52h-79v-19h79v-52h-79v-70h111v-60h-199v60h25v209l16 115h140z" />
    <glyph glyph-name="peseta.dnom" 
d="M7 231v52h16v101h165l13 -101h20v-52h-20l-13 -99h-100v-132h-65v231h-16zM88 327v-44h50l-5 44h-45zM88 231v-42h44l6 42h-50z" />
    <glyph glyph-name="Euro.dnom" horiz-adv-x="224" 
d="M13 203v54h30l15 127h150v-66h-88l-8 -61h82l-7 -54h-82l-1 -11l1 -10h80l-6 -53h-67l8 -63h88v-66h-150l-16 129h-29v53h23l-1 10l1 11h-23z" />
    <glyph glyph-name="minus.dnom" horiz-adv-x="213" 
d="M194 210v-54h-175v54h175z" />
    <glyph glyph-name="space.aalt" horiz-adv-x="29" 
 />
    <glyph glyph-name="numbersign.oldstyle.pnum" horiz-adv-x="379" 
d="M19 145v74h72l12 91h-84v75h94l21 160h63l-72 -545h-62l19 145h-63zM359 385v-75h-72l-12 -91h84v-74h-93l-19 -145h-63l72 545h62l-21 -160h62z" />
    <glyph glyph-name="dollar.oldstyle.pnum" horiz-adv-x="346" 
d="M47 0v87h171l14 113l-201 185l27 234h84v113h81v-113h79v-87h-170l-13 -108l201 -185l-28 -239h-78v-113h-82v113h-85z" />
    <glyph glyph-name="plus.oldstyle.pnum" horiz-adv-x="293" 
d="M183 152h-73v114h-98v75h98v114h73v-114h98v-75h-98v-114z" />
    <glyph glyph-name="slash.oldstyle.pnum" horiz-adv-x="215" 
d="M-46 -169l201 882h73l-201 -882h-73z" />
    <glyph glyph-name="zero.oldstyle.pnum" horiz-adv-x="358" 
d="M53 0l-30 273l30 273h252l30 -273l-30 -273h-252zM248 273l-22 191h-94l-21 -191l21 -192h94z" />
    <glyph glyph-name="one.oldstyle.pnum" horiz-adv-x="272" 
d="M21 0v74h79v389h-83v83h170v-472h73v-74h-239z" />
    <glyph glyph-name="two.oldstyle.pnum" horiz-adv-x="352" 
d="M327 88v-88h-292v174l196 186l-10 98h-173v88h250l24 -220l-203 -191v-47h208z" />
    <glyph glyph-name="three.oldstyle.pnum" horiz-adv-x="328" 
d="M213 328l-14 130h-160v88h237l21 -222l-39 -109l48 -127l-26 -256h-249v87h171l16 163l-27 73h-110v90h102z" />
    <glyph glyph-name="four.oldstyle.pnum" horiz-adv-x="352" 
d="M341 102v-92h-42v-184h-83v184h-186v176l164 360h94l-171 -376v-68h99v113h83v-113h42z" />
    <glyph glyph-name="five.oldstyle.pnum" horiz-adv-x="325" 
d="M35 -168v89h159l14 128l-12 119l-171 18l33 360h217v-89h-140l-18 -193l158 -17l20 -198l-23 -217h-237z" />
    <glyph glyph-name="six.oldstyle.pnum" horiz-adv-x="352" 
d="M26 288l44 425h225v-88h-151l-19 -193h187l16 -153l-29 -279h-241zM111 288l24 -208h88l20 199l-8 73h-118z" />
    <glyph glyph-name="seven.oldstyle.pnum" horiz-adv-x="328" 
d="M216 404v53h-195v89h281v-150l-147 -564h-94z" />
    <glyph glyph-name="eight.oldstyle.pnum" horiz-adv-x="352" 
d="M31 495l21 218h246l22 -218l-35 -108l44 -138l-25 -249h-256l-26 249l44 135zM105 247l17 -166h107l17 166l-28 87h-85zM124 632l-13 -125l30 -91h70l30 91l-14 125h-103z" />
    <glyph glyph-name="nine.oldstyle.pnum" horiz-adv-x="352" 
d="M57 -168v89h148l24 220h-183l-17 158l26 247h240l32 -300l-44 -414h-226zM113 299l9 -79h115l3 26l-22 218h-88z" />
    <glyph glyph-name="less.oldstyle.pnum" horiz-adv-x="293" 
d="M197 103l-170 201l170 199l55 -47l-129 -153l129 -152z" />
    <glyph glyph-name="equal.oldstyle.pnum" horiz-adv-x="293" 
d="M274 407v-74h-255v74h255zM274 273v-73h-255v73h255z" />
    <glyph glyph-name="greater.oldstyle.pnum" horiz-adv-x="292" 
d="M96 503l169 -199l-169 -201l-55 48l128 152l-128 153z" />
    <glyph glyph-name="cent.oldstyle.pnum" horiz-adv-x="304" 
d="M29 273l30 273h76v111h85v-111h68v-88h-152l-20 -185l20 -185h152v-88h-67v-105h-86v105h-76z" />
    <glyph glyph-name="sterling.oldstyle.pnum" horiz-adv-x="372" 
d="M324 619v-87h-157l-17 -119v-64h145v-84h-145v-178h212v-87h-345v87h45v326l30 206h232z" />
    <glyph glyph-name="currency.oldstyle.pnum" horiz-adv-x="379" 
d="M351 390l-38 -38l12 -80l-12 -80l38 -38l-50 -57l-45 45h-133l-45 -45l-50 57l37 38l-12 80l12 80l-37 38l50 57l45 -45h133l45 45zM122 272l9 -61h117l9 61l-9 60h-117z" />
    <glyph glyph-name="yen.oldstyle.pnum" horiz-adv-x="379" 
d="M98 619l67 -309h49l69 309h82l-69 -309h49v-74h-113v-42h113v-72h-113v-122h-86v122h-111v72h111v42h-111v74h47l-67 309h83z" />
    <glyph glyph-name="logicalnot.oldstyle.pnum" horiz-adv-x="293" 
d="M266 152h-74v114h-181v75h255v-189z" />
    <glyph glyph-name="plusminus.oldstyle.pnum" horiz-adv-x="293" 
d="M183 188h-73v110h-98v74h98v103h73v-103h98v-74h-98v-110zM281 156v-73h-269v73h269z" />
    <glyph glyph-name="multiply.oldstyle.pnum" horiz-adv-x="293" 
d="M274 223l-47 -51l-81 82l-81 -82l-45 51l79 80l-79 81l45 51l81 -83l81 83l47 -51l-79 -81z" />
    <glyph glyph-name="divide.oldstyle.pnum" horiz-adv-x="293" 
d="M279 341v-75h-268v75h268zM104 388v88h82v-88h-82zM104 131v88h82v-88h-82z" />
    <glyph glyph-name="franc.oldstyle.pnum" horiz-adv-x="339" 
d="M17 108v76h52v435h257v-87h-169v-171h152v-86h-152v-91h59v-76h-59v-108h-88v108h-52z" />
    <glyph glyph-name="lira.oldstyle.pnum" horiz-adv-x="372" 
d="M324 619v-87h-157l-17 -119v-9h147v-78h-147v-50h147v-78h-147v-111h212v-87h-345v87h45v326l30 206h232z" />
    <glyph glyph-name="peseta.oldstyle.pnum" horiz-adv-x="379" 
d="M17 378v75h30v166h270l19 -166h40v-75h-40l-19 -165h-187v-213h-83v378h-30zM130 542v-89h124l-10 89h-114zM130 378v-89h113l11 89h-124z" />
    <glyph glyph-name="dong.oldstyle.pnum" horiz-adv-x="383" 
d="M29 242l28 243h184v61h-89v74h89v109h80v-109h55v-74h-55v-469h49v-77h-313zM109 242l19 -165h113v331h-113zM370 -47v-68h-313v68h313z" />
    <glyph glyph-name="Euro.oldstyle.pnum" horiz-adv-x="379" 
d="M15 335v79h57l23 205h244v-88h-166l-13 -117h150l-9 -79h-150l-3 -26l3 -23h144l-8 -80h-127l13 -119h166v-87h-244l-23 206h-57v80h48l-3 23l3 26h-48z" />
    <glyph glyph-name="uni20B4.oldstyle.pnum" horiz-adv-x="379" 
d="M366 422v-81h-88l-66 -64h154v-82h-222l15 -108h161v-87h-236l-25 195h-45v82h89l64 64h-153v81h222l-13 110h-161v87h236l25 -197h43z" />
    <glyph glyph-name="minus.oldstyle.pnum" horiz-adv-x="293" 
d="M281 341v-75h-269v75h269z" />
    <glyph glyph-name="approxequal.oldstyle.pnum" horiz-adv-x="293" 
d="M131 325l-12 45h-42l-9 -45h-55l19 106h129l12 -45h42l9 45h56l-20 -106h-129zM161 289l12 -43h43l8 43h56l-20 -104h-129l-13 46h-41l-9 -46h-55l19 104h129z" />
    <glyph glyph-name="notequal.oldstyle.pnum" horiz-adv-x="293" 
d="M274 273v-73h-117l-17 -71h-73l17 71h-65v73h83l15 60h-98v74h116l17 71h73l-17 -71h66v-74h-84l-15 -60h99z" />
    <glyph glyph-name="lessequal.oldstyle.pnum" horiz-adv-x="293" 
d="M220 183l-199 164l199 165l47 -60l-126 -104l126 -105zM268 60h-246v77h246v-77z" />
    <glyph glyph-name="greaterequal.oldstyle.pnum" horiz-adv-x="293" 
d="M79 512l199 -165l-199 -164l-48 60l127 105l-126 104zM276 60h-246v77h246v-77z" />
    <glyph glyph-name="dotmath.oldstyle.pnum" horiz-adv-x="196" 
d="M161 308l-9 -78h-107l-10 78l10 78h107z" />
    <glyph glyph-name="uni2A7D.oldstyle.pnum" horiz-adv-x="293" 
d="M220 183l-200 164l200 165l47 -60l-127 -104l127 -105zM218 12l-200 163l46 58l199 -164z" />
    <glyph glyph-name="uni2A7E.oldstyle.pnum" horiz-adv-x="293" 
d="M77 512l200 -165l-200 -164l-48 60l127 105l-126 104zM278 175l-199 -163l-45 57l199 164z" />
    <glyph glyph-name="numbersign.pnum" horiz-adv-x="400" 
d="M378 497v-76h-74l-15 -143h89v-76h-98l-21 -202h-67l77 712h66l-23 -215h66zM22 202v76h74l15 143h-89v76h98l23 215h66l-77 -712h-66l22 202h-66z" />
    <glyph glyph-name="dollar.pnum" horiz-adv-x="325" 
d="M40 0v86h150l18 165l-183 215l29 247h75v100h79v-100h70v-86h-146l-15 -126l184 -218l-32 -283h-66v-97h-79v97h-84z" />
    <glyph glyph-name="plus.pnum" horiz-adv-x="293" 
d="M183 192h-73v114h-98v75h98v114h73v-114h98v-75h-98v-114z" />
    <glyph glyph-name="slash.pnum" horiz-adv-x="230" 
d="M-2 0l162 713h73l-162 -713h-73z" />
    <glyph glyph-name="zero.pnum" horiz-adv-x="352" 
d="M57 0l-39 357l39 356h238l39 -356l-39 -357h-238zM248 357l-30 275h-84l-30 -275l30 -276h84z" />
    <glyph glyph-name="one.pnum" horiz-adv-x="282" 
d="M26 0v74h79v549h-82v90h171v-639h72v-74h-240z" />
    <glyph glyph-name="two.pnum" horiz-adv-x="323" 
d="M306 88v-88h-281v199l189 276l-17 150h-152v88h229l29 -259l-194 -281v-85h197z" />
    <glyph glyph-name="three.pnum" horiz-adv-x="302" 
d="M10 0v88h167l15 154l-28 80h-100v89h94l30 82l-14 132h-157v88h234l24 -222l-42 -112l47 -131l-25 -248h-245z" />
    <glyph glyph-name="four.pnum" horiz-adv-x="352" 
d="M350 238v-85h-52v-153h-86v153h-189v182l146 378h94l-154 -387v-88h103v143h86v-143h52z" />
    <glyph glyph-name="five.pnum" horiz-adv-x="326" 
d="M36 0v88h162l14 136l-12 111l-174 19l33 359h223v-88h-143l-18 -193l161 -17l19 -191l-22 -224h-243z" />
    <glyph glyph-name="six.pnum" horiz-adv-x="352" 
d="M26 288l44 425h225v-88h-150l-20 -193h187l16 -153l-29 -279h-241zM109 288l24 -208h90l20 199l-8 73h-119z" />
    <glyph glyph-name="seven.pnum" horiz-adv-x="319" 
d="M210 571v54h-201v88h290v-149l-157 -564h-93z" />
    <glyph glyph-name="eight.pnum" horiz-adv-x="352" 
d="M31 495l21 218h246l22 -218l-35 -108l44 -138l-25 -249h-256l-26 249l44 135zM108 247l17 -166h101l17 166l-28 87h-79zM127 632l-13 -125l30 -91h64l30 91l-14 125h-97z" />
    <glyph glyph-name="nine.pnum" horiz-adv-x="352" 
d="M325 413l-44 -413h-225v88h148l24 220h-183l-18 158l26 247h241zM112 466l8 -78h116l3 25l-23 219h-87z" />
    <glyph glyph-name="less.pnum" horiz-adv-x="293" 
d="M197 143l-170 201l170 199l55 -47l-129 -153l129 -152z" />
    <glyph glyph-name="equal.pnum" horiz-adv-x="293" 
d="M274 447v-74h-255v74h255zM274 313v-73h-255v73h255z" />
    <glyph glyph-name="greater.pnum" horiz-adv-x="292" 
d="M96 543l169 -199l-169 -201l-55 48l128 152l-128 153z" />
    <glyph glyph-name="cent.pnum" horiz-adv-x="269" 
d="M21 248l26 249h63v109h85v-109h55v-83h-126l-17 -166l17 -165h126v-83h-54v-105h-86v105h-63z" />
    <glyph glyph-name="sterling.pnum" horiz-adv-x="392" 
d="M334 713v-87h-160l-15 -117v-110h150v-87h-150v-225h217v-87h-360v87h58v422l25 204h235z" />
    <glyph glyph-name="currency.pnum" horiz-adv-x="400" 
d="M367 447l-39 -42l13 -84l-13 -84l39 -41l-50 -57l-45 46h-145l-44 -46l-51 57l40 40l-14 85l14 85l-40 41l51 57l45 -47h143l46 47zM130 321l10 -62h120l10 62l-10 63h-120z" />
    <glyph glyph-name="yen.pnum" horiz-adv-x="396" 
d="M99 711l73 -357h52l74 357h86l-73 -357h51v-85h-118v-58h118v-84h-118v-127h-93v127h-116v84h116v58h-116v85h50l-73 357h87z" />
    <glyph glyph-name="logicalnot.pnum" horiz-adv-x="293" 
d="M266 192h-74v114h-181v75h255v-189z" />
    <glyph glyph-name="plusminus.pnum" horiz-adv-x="293" 
d="M183 228h-73v110h-98v74h98v103h73v-103h98v-74h-98v-110zM281 196v-73h-269v73h269z" />
    <glyph glyph-name="multiply.pnum" horiz-adv-x="293" 
d="M274 263l-47 -51l-81 82l-81 -82l-45 51l79 80l-79 81l45 51l81 -83l81 83l47 -51l-79 -81z" />
    <glyph glyph-name="divide.pnum" horiz-adv-x="293" 
d="M279 381v-75h-268v75h268zM104 428v88h82v-88h-82zM104 171v88h82v-88h-82z" />
    <glyph glyph-name="franc.pnum" horiz-adv-x="351" 
d="M19 141v78h50v495h264v-89h-172v-213h152v-85h-152v-108h69v-78h-69v-141h-92v141h-50z" />
    <glyph glyph-name="lira.pnum" horiz-adv-x="392" 
d="M334 713v-88h-160l-15 -119v-49h141v-81h-141v-55h141v-81h-141v-153h218v-87h-361v87h58v419l26 207h234z" />
    <glyph glyph-name="peseta.pnum" horiz-adv-x="392" 
d="M12 448v77h37v186h283l22 -186h42v-77h-42l-22 -184h-201v-264h-82v448h-37zM131 634v-109h143l-14 109h-129zM131 448v-106h129l14 106h-143z" />
    <glyph glyph-name="dong.pnum" horiz-adv-x="383" 
d="M29 242l28 243h184v61h-89v74h89v109h80v-109h55v-74h-55v-469h49v-77h-313zM109 242l19 -165h113v331h-113zM370 -47v-68h-313v68h313z" />
    <glyph glyph-name="Euro.pnum" horiz-adv-x="380" 
d="M11 385v80h65l29 248h249v-87h-169l-19 -161h161l-10 -80h-161l-3 -29l3 -26h152l-9 -80h-133l19 -163h169v-87h-249l-30 250h-64v80h55l-3 26l3 29h-55z" />
    <glyph glyph-name="uni20B4.pnum" horiz-adv-x="398" 
d="M385 474v-80h-86l-72 -77h158v-79h-231l18 -151h168v-87h-247l-29 238h-50v79h102l68 77h-170v80h240l-21 154h-168v85h246l33 -239h41z" />
    <glyph glyph-name="minus.pnum" horiz-adv-x="293" 
d="M281 381v-75h-269v75h269z" />
    <glyph glyph-name="approxequal.pnum" horiz-adv-x="293" 
d="M131 365l-12 45h-42l-9 -45h-55l19 106h129l12 -45h42l9 45h56l-20 -106h-129zM161 329l12 -43h43l8 43h56l-20 -104h-129l-13 46h-41l-9 -46h-55l19 104h129z" />
    <glyph glyph-name="notequal.pnum" horiz-adv-x="293" 
d="M274 313v-73h-117l-17 -71h-73l17 71h-65v73h83l15 60h-98v74h116l17 71h73l-17 -71h66v-74h-84l-15 -60h99z" />
    <glyph glyph-name="lessequal.pnum" horiz-adv-x="293" 
d="M220 223l-199 164l199 165l47 -60l-126 -104l126 -105zM268 100h-246v77h246v-77z" />
    <glyph glyph-name="greaterequal.pnum" horiz-adv-x="293" 
d="M79 552l199 -165l-199 -164l-48 60l127 105l-126 104zM276 100h-246v77h246v-77z" />
    <glyph glyph-name="dotmath.pnum" horiz-adv-x="196" 
d="M161 348l-9 -78h-107l-10 78l10 78h107z" />
    <glyph glyph-name="uni2A7D.pnum" horiz-adv-x="293" 
d="M220 223l-200 164l200 165l47 -60l-127 -104l127 -105zM218 52l-200 163l46 58l199 -164z" />
    <glyph glyph-name="uni2A7E.pnum" horiz-adv-x="293" 
d="M77 552l200 -165l-200 -164l-48 60l127 105l-126 104zM278 215l-199 -163l-45 57l199 164z" />
    <glyph glyph-name="numbersign.oldstyle" horiz-adv-x="325" 
d="M313 382v-78h-61l-9 -85h70v-78h-79l-15 -141h-62l61 544h61l-18 -162h52zM11 141v78h61l9 85h-70v78h78l18 162h62l-61 -544h-60l15 141h-52z" />
    <glyph glyph-name="dollar.oldstyle" horiz-adv-x="423" 
d="M82 0v87h171l14 114l-201 184l28 234h83v113h81v-113h80v-87h-171l-12 -108l201 -185l-29 -239h-77v-113h-82v113h-86z" />
    <glyph glyph-name="plus.oldstyle" horiz-adv-x="325" 
d="M199 150h-74v119h-109v76h109v119h74v-119h110v-76h-110v-119z" />
    <glyph glyph-name="slash.oldstyle" horiz-adv-x="215" 
d="M-46 -169l201 882h73l-201 -882h-73z" />
    <glyph glyph-name="zero.oldstyle" horiz-adv-x="325" 
d="M47 0l-27 272l27 272h230l28 -272l-28 -272h-230zM220 272l-20 189h-76l-19 -189l19 -188h77z" />
    <glyph glyph-name="one.oldstyle" horiz-adv-x="325" 
d="M60 0v76h69v384h-72v84h163v-468h67v-76h-227z" />
    <glyph glyph-name="two.oldstyle" horiz-adv-x="325" 
d="M304 87v-87h-276v167l177 195l-10 95h-151v87h232l21 -212l-177 -195v-50h184z" />
    <glyph glyph-name="three.oldstyle" horiz-adv-x="325" 
d="M27 -171v87h161l15 168l-29 76h-106v87h101l30 82l-14 128h-151v87h232l23 -221l-41 -114l47 -122l-25 -258h-243z" />
    <glyph glyph-name="four.oldstyle" horiz-adv-x="325" 
d="M319 93v-86h-36v-182h-80v182h-178v181l147 356h90l-157 -383v-68h98v122h80v-122h36z" />
    <glyph glyph-name="five.oldstyle" horiz-adv-x="325" 
d="M41 -171v83h157l15 147l-11 113l-169 17l30 355h217v-87h-141l-15 -191l156 -16l18 -191l-22 -230h-235z" />
    <glyph glyph-name="six.oldstyle" horiz-adv-x="325" 
d="M23 286l42 427h212v-87h-139l-19 -193h173l14 -153l-27 -280h-226zM104 286l21 -203h82l18 197l-7 72h-107z" />
    <glyph glyph-name="seven.oldstyle" horiz-adv-x="325" 
d="M216 402v55h-192v87h275v-148l-155 -567h-89z" />
    <glyph glyph-name="eight.oldstyle" horiz-adv-x="325" 
d="M27 496l19 219h231l20 -219l-30 -109l39 -137l-23 -250h-241l-23 250l38 133zM101 249l15 -165h92l15 165l-24 85h-74zM106 515l25 -97h62l25 95l-11 119h-90z" />
    <glyph glyph-name="nine.oldstyle" horiz-adv-x="325" 
d="M50 -171v87h139l21 220h-168l-16 161l24 247h224l29 -302l-40 -413h-213zM107 297l7 -79h105l2 24l-21 219h-77z" />
    <glyph glyph-name="less.oldstyle" horiz-adv-x="325" 
d="M219 97l-178 207l178 206l55 -48l-137 -159l137 -158z" />
    <glyph glyph-name="equal.oldstyle" horiz-adv-x="325" 
d="M283 410v-75h-242v75h242zM283 279v-75h-242v75h242z" />
    <glyph glyph-name="greater.oldstyle" horiz-adv-x="325" 
d="M106 510l178 -206l-178 -207l-55 48l137 158l-137 159z" />
    <glyph glyph-name="cent.oldstyle" horiz-adv-x="423" 
d="M82 273l30 273h76v111h85v-111h68v-88h-152l-20 -185l20 -185h152v-88h-68v-105h-85v105h-76z" />
    <glyph glyph-name="sterling.oldstyle" horiz-adv-x="423" 
d="M349 619v-87h-157l-17 -119v-64h145v-84h-145v-178h213v-87h-346v87h46v326l29 206h232z" />
    <glyph glyph-name="currency.oldstyle" horiz-adv-x="423" 
d="M358 375l-33 -33l10 -71l-9 -70l32 -33l-50 -57l-39 40h-116l-39 -40l-50 57l33 35l-9 68l9 69l-33 35l50 57l40 -41h114l40 41zM155 271l7 -50h99l7 50l-7 51h-99z" />
    <glyph glyph-name="yen.oldstyle" horiz-adv-x="423" 
d="M119 619l68 -309h48l69 309h82l-69 -309h49v-74h-113v-42h113v-72h-113v-122h-86v122h-110v72h110v42h-110v74h47l-67 309h82z" />
    <glyph glyph-name="logicalnot.oldstyle" horiz-adv-x="325" 
d="M295 163h-74v106h-205v76h279v-182z" />
    <glyph glyph-name="plusminus.oldstyle" horiz-adv-x="325" 
d="M199 181h-74v112h-109v75h109v117h74v-117h110v-75h-110v-112zM301 152v-74h-277v74h277z" />
    <glyph glyph-name="multiply.oldstyle" horiz-adv-x="325" 
d="M310 208l-47 -52l-101 101l-100 -101l-47 52l98 98l-98 99l47 52l100 -101l101 101l47 -52l-98 -99z" />
    <glyph glyph-name="divide.oldstyle" horiz-adv-x="325" 
d="M309 345v-76h-293v76h293zM121 394v87h82v-87h-82zM121 132v87h82v-87h-82z" />
    <glyph glyph-name="uni2007.aalt" horiz-adv-x="325" 
 />
    <glyph glyph-name="franc.oldstyle" horiz-adv-x="423" 
d="M57 108v76h52v435h257v-87h-169v-171h151v-86h-151v-91h59v-76h-59v-108h-88v108h-52z" />
    <glyph glyph-name="lira.oldstyle" horiz-adv-x="423" 
d="M349 619v-87h-157l-17 -119v-9h148v-78h-148v-50h148v-78h-148v-111h213v-87h-346v87h46v326l29 206h232z" />
    <glyph glyph-name="peseta.oldstyle" horiz-adv-x="423" 
d="M36 378v75h30v166h270l19 -166h40v-75h-40l-19 -165h-186v-213h-84v378h-30zM150 542v-89h123l-10 89h-113zM150 378v-89h112l11 89h-123z" />
    <glyph glyph-name="dong.oldstyle" horiz-adv-x="423" 
d="M49 242l28 243h184v61h-89v74h89v109h80v-109h55v-74h-55v-469h50v-77h-314zM129 242l20 -165h112v331h-112zM391 -47v-68h-314v68h314z" />
    <glyph glyph-name="Euro.oldstyle" horiz-adv-x="423" 
d="M49 335v79h57l23 205h244v-88h-167l-13 -117h150l-8 -79h-150l-3 -26l2 -23h145l-8 -80h-128l13 -119h167v-87h-244l-23 206h-57v80h48l-3 23l3 26h-48z" />
    <glyph glyph-name="uni20B4.oldstyle" horiz-adv-x="423" 
d="M387 422v-81h-88l-66 -64h154v-82h-222l15 -108h161v-87h-236l-25 195h-45v82h89l64 64h-153v81h223l-14 110h-160v87h235l25 -197h43z" />
    <glyph glyph-name="minus.oldstyle" horiz-adv-x="325" 
d="M295 345v-76h-265v76h265z" />
    <glyph glyph-name="approxequal.oldstyle" horiz-adv-x="325" 
d="M142 325l-9 43h-40l-8 -43h-60l18 106h139l9 -44h39l8 44h61l-18 -106h-139zM182 289l9 -43h39l8 43h61l-18 -104h-139l-10 43h-39l-8 -43h-60l18 104h139z" />
    <glyph glyph-name="notequal.oldstyle" horiz-adv-x="325" 
d="M283 279v-75h-107l-14 -68h-72l14 68h-63v75h79l12 56h-91v75h107l14 67h72l-14 -67h63v-75h-79l-12 -56h91z" />
    <glyph glyph-name="lessequal.oldstyle" horiz-adv-x="325" 
d="M231 210l-188 158l188 159l49 -60l-117 -99l117 -98zM279 87h-234v79h234v-79z" />
    <glyph glyph-name="greaterequal.oldstyle" horiz-adv-x="325" 
d="M94 527l187 -159l-187 -158l-51 60l118 98l-117 99zM279 87h-235v79h235v-79z" />
    <glyph glyph-name="dotmath.oldstyle" horiz-adv-x="325" 
d="M225 308l-9 -78h-107l-10 78l10 78h107z" />
    <glyph glyph-name="uni2A7D.oldstyle" horiz-adv-x="325" 
d="M231 210l-188 159l188 159l49 -61l-117 -98l117 -98zM228 44l-187 157l48 56l187 -158z" />
    <glyph glyph-name="uni2A7E.oldstyle" horiz-adv-x="325" 
d="M92 527l187 -159l-187 -158l-51 60l117 99l-117 98zM280 201l-187 -158l-47 56l187 158z" />
    <glyph glyph-name="parenleft.case" horiz-adv-x="193" 
d="M184 803v-76h-45l-39 -379l39 -382h44v-75h-118l-47 457l47 455h119z" />
    <glyph glyph-name="parenright.case" horiz-adv-x="193" 
d="M55 -34l39 382l-39 379h-45v76h118l47 -455l-47 -457h-118v75h45z" />
    <glyph glyph-name="hyphen.aalt" horiz-adv-x="201" 
d="M16 306v82h171v-82h-171z" />
    <glyph glyph-name="at.aalt" horiz-adv-x="528" 
d="M62 0l-38 357l38 356h406l30 -278l-30 -277h-297l-22 199l21 197h198v-323h39l21 204l-22 208h-282l-30 -286l30 -287h362v-70h-424zM224 357l13 -126h61v248h-61z" />
    <glyph glyph-name="bracketleft.aalt" horiz-adv-x="193" 
d="M184 803v-76h-61v-761h60v-76h-141v913h142z" />
    <glyph glyph-name="bracketright.aalt" horiz-adv-x="193" 
d="M10 -110v76h65v761h-65v76h147v-913h-147z" />
    <glyph glyph-name="grave.aalt" horiz-adv-x="164" 
d="M-4 867l165 -52l-21 -71l-166 52z" />
    <glyph glyph-name="braceleft.aalt" horiz-adv-x="193" 
d="M184 803v-76h-45l-9 -83l19 -198l-29 -100l29 -99l-19 -199l9 -82h44v-76h-118l-17 158l19 199l-18 61h-40v76h40l18 62l-19 198l17 159h119z" />
    <glyph glyph-name="braceright.aalt" horiz-adv-x="193" 
d="M44 446l20 198l-9 83h-48v76h122l17 -159l-20 -198l19 -62h41v-76h-42l-18 -61l20 -199l-17 -158h-121v76h47l9 82l-20 199l29 99z" />
    <glyph glyph-name="exclamdown.aalt" horiz-adv-x="164" 
d="M41 0v471h81v-471h-81zM33 604v109h98v-109h-98z" />
    <glyph glyph-name="dieresis.aalt" horiz-adv-x="164" 
d="M-7 755v102h65v-102h-65zM106 755v102h65v-102h-65z" />
    <glyph glyph-name="guillemotleft.aalt" horiz-adv-x="264" 
d="M97 347l26 -151h-68l-27 151l27 153h68zM205 347l26 -151h-68l-27 151l27 153h68z" />
    <glyph glyph-name="uni00AD.aalt" horiz-adv-x="201" 
d="M16 306v82h171v-82h-171z" />
    <glyph glyph-name="macron.aalt" horiz-adv-x="164" 
d="M166 823v-68h-168v68h168z" />
    <glyph glyph-name="acute.aalt" horiz-adv-x="164" 
d="M-6 815l166 52l22 -71l-166 -52z" />
    <glyph glyph-name="periodcentered.aalt" horiz-adv-x="196" 
d="M145 349l-7 -59h-81l-7 59l7 60h81z" />
    <glyph glyph-name="guillemotright.aalt" horiz-adv-x="264" 
d="M33 196l27 151l-27 153h68l27 -153l-27 -151h-68zM141 196l27 151l-27 153h68l27 -153l-27 -151h-68z" />
    <glyph glyph-name="questiondown.aalt" horiz-adv-x="334" 
d="M278 0h-226l-24 238l97 134v100h84v-117l-96 -136l13 -139h87l13 118h74zM214 713v-109h-98v109h98z" />
    <glyph glyph-name="circumflex.aalt" horiz-adv-x="164" 
d="M105 754l-9 37h-29l-8 -37h-60l21 95h123l23 -95h-61z" />
    <glyph glyph-name="caron.case" horiz-adv-x="164" 
d="M59 849l8 -36h30l8 36h61l-22 -94h-123l-23 94h61z" />
    <glyph glyph-name="breve.case" horiz-adv-x="164" 
d="M101 813l4 36h61l-11 -94h-146l-10 94h60l4 -36h38z" />
    <glyph glyph-name="dotaccent.aalt" horiz-adv-x="164" 
d="M36 755v105h93v-105h-93z" />
    <glyph glyph-name="ring.aalt" horiz-adv-x="164" 
d="M160 753l-17 -86h-122l-19 86l19 89h122zM108 753l-9 42h-36l-8 -42l8 -40h37z" />
    <glyph glyph-name="tilde.aalt" horiz-adv-x="164" 
d="M93 849l16 -48h16l10 48h47l-19 -94h-88l-14 41h-19l-8 -41h-47l19 94h87z" />
    <glyph glyph-name="hungarumlaut.aalt" horiz-adv-x="164" 
d="M-25 784l91 108l50 -42l-91 -108zM96 784l91 108l50 -42l-92 -108z" />
    <glyph glyph-name="endash.aalt" horiz-adv-x="305" 
d="M27 306v82h251v-82h-251z" />
    <glyph glyph-name="emdash.aalt" horiz-adv-x="371" 
d="M27 306v82h317v-82h-317z" />
    <glyph glyph-name="bullet.case" horiz-adv-x="219" 
d="M44 221l-13 126l13 126h131l13 -126l-13 -126h-131z" />
    <glyph glyph-name="guilsinglleft.aalt" horiz-adv-x="156" 
d="M97 347l26 -151h-68l-27 151l27 153h68z" />
    <glyph glyph-name="guilsinglright.aalt" horiz-adv-x="156" 
d="M33 196l27 151l-27 153h68l27 -153l-27 -151h-68z" />
    <glyph glyph-name="w.aalt" horiz-adv-x="550" 
d="M55 0l-36 497h83l31 -421h28l30 421h165l30 -421h27l32 421h82l-36 -497h-177l-31 421h-20l-29 -421h-179z" />
    <glyph glyph-name="glyph569" horiz-adv-x="397" 
d="M52 0l-38 357l38 356h293l38 -356l-38 -357h-293zM336 357l-18 163h-240l-17 -163l32 -307h210zM269 202v-44h-140v44h140zM183 395v-78h-64v78h64zM282 395v-78h-64v78h64z" />
    <glyph glyph-name="glyph570" horiz-adv-x="332" 
d="M42 0v713h266v-88h-174v-210h150v-84h-150v-243h287v-88h-379z" />
    <glyph glyph-name="glyph571" horiz-adv-x="262" 
d="M42 0v713h92v-625h217v-88h-309z" />
    <glyph glyph-name="glyph572" horiz-adv-x="380" 
d="M310 0l-85 307h-94v-307h-89v713h292l26 -221l-56 -148l71 -256h91v-88h-156zM271 496l-16 135h-124v-242h100z" />
    <glyph glyph-name="glyph573" horiz-adv-x="332" 
d="M87 867l165 -52l-21 -71l-166 52zM42 0v713h375v-88h-283v-210h155v-84h-155v-243h178v-88h-270z" />
    <glyph glyph-name="glyph574" horiz-adv-x="332" 
d="M85 815l166 52l22 -71l-166 -52zM42 0v713h266v-88h-174v-210h150v-84h-150v-243h287v-88h-379z" />
    <glyph glyph-name="glyph575" horiz-adv-x="332" 
d="M196 754l-9 37h-29l-8 -37h-60l21 95h123l23 -95h-61zM42 0v713h266v-88h-174v-210h150v-84h-150v-243h287v-88h-379z" />
    <glyph glyph-name="glyph576" horiz-adv-x="332" 
d="M84 755v102h65v-102h-65zM197 755v102h65v-102h-65zM42 0v713h266v-88h-174v-210h150v-84h-150v-243h287v-88h-379z" />
    <glyph glyph-name="glyph577" horiz-adv-x="305" 
d="M62 0l-37 357l37 356h316v-88h-236l-28 -268l28 -269h142v-88h-222z" />
    <glyph glyph-name="glyph578" horiz-adv-x="328" 
d="M42 0v713h375v-88h-283v-210h155v-84h-155v-243h178v-88h-270z" />
    <glyph glyph-name="glyph579" horiz-adv-x="325" 
d="M42 0v713h372v-89h-280v-212h157v-86h-157v-326h-92z" />
    <glyph glyph-name="glyph580" horiz-adv-x="398" 
d="M63 0l-38 357l38 356h422v-88h-342l-29 -268l30 -278h139v233h-75v78h157v-390h-302z" />
    <glyph glyph-name="glyph581" horiz-adv-x="325" 
d="M40 0v86h150l18 165l-183 215l29 247h351v-88h-274l-14 -125l184 -217l-32 -283h-229z" />
    <glyph glyph-name="glyph582" horiz-adv-x="304" 
d="M9 624v89h328v-88h-117v-625h-93v624h-118z" />
    <glyph glyph-name="glyph583" horiz-adv-x="553" 
d="M283 0l-13 224h-139l-28 -224h-87l90 713h533v-89h-304l13 -209h158v-84h-153l14 -243h162v-88h-246zM181 630l-40 -323h124l-19 323h-65z" />
    <glyph glyph-name="glyph584" horiz-adv-x="305" 
d="M62 0l-37 357l37 356h316v-88h-236l-28 -268l28 -269h142v-88h-67l-28 -175h-70l29 175h-86z" />
    <glyph glyph-name="glyph585" horiz-adv-x="328" 
d="M130 867l165 -52l-21 -71l-166 52zM42 0v713h375v-88h-283v-210h155v-84h-155v-243h178v-88h-270z" />
    <glyph glyph-name="glyph586" horiz-adv-x="328" 
d="M85 815l166 52l22 -71l-166 -52zM42 0v713h375v-88h-283v-210h155v-84h-155v-243h178v-88h-270z" />
    <glyph glyph-name="glyph587" horiz-adv-x="328" 
d="M196 754l-9 37h-29l-8 -37h-60l21 95h123l23 -95h-61zM42 0v713h375v-88h-283v-210h155v-84h-155v-243h178v-88h-270z" />
    <glyph glyph-name="glyph588" horiz-adv-x="328" 
d="M84 755v102h65v-102h-65zM197 755v102h65v-102h-65zM42 0v713h375v-88h-283v-210h155v-84h-155v-243h178v-88h-270z" />
    <glyph glyph-name="glyph589" horiz-adv-x="572" 
d="M60 0l-38 357l38 356h599v-89h-292v-209h157v-84h-157v-243h181v-88h-488zM140 84h137v544h-137l-29 -271z" />
    <glyph glyph-name="glyph590" horiz-adv-x="325" 
d="M149 849l8 -36h30l8 36h61l-22 -94h-123l-23 94h61zM40 0v86h150l18 165l-183 215l29 247h351v-88h-274l-14 -125l184 -217l-32 -283h-229z" />
    <glyph glyph-name="glyph591" horiz-adv-x="238" 
d="M-10 0l159 713h177v-83h-109l-72 -323h181v-83h-199l-50 -224h-87z" />
    <glyph glyph-name="glyph592" horiz-adv-x="326" 
d="M42 0v713h263v-88h-171v-210h276v-84h-276v-243h171v-88h-263z" />
    <glyph glyph-name="glyph593" horiz-adv-x="325" 
d="M42 0v713h266v-89h-174v-212h282v-86h-282v-326h-92z" />
    <glyph glyph-name="glyph594" horiz-adv-x="243" 
d="M42 0v713h90v-296h205v-86h-205v-331h-90z" />
    <glyph glyph-name="glyph595" horiz-adv-x="464" 
d="M576 713v-82h-100l-73 -631h-176l-74 631h-28v-631h-83v713h187l73 -634h26l74 634h174z" />
    <glyph glyph-name="glyph596" horiz-adv-x="331" 
d="M42 0v713h187l108 -634h118v-79h-189l-109 631h-32v-631h-83z" />
    <glyph glyph-name="glyph597" horiz-adv-x="237" 
d="M63 0l-38 357l38 356h263v-85h-183l-29 -271l29 -273h183v-84h-263z" />
    <glyph glyph-name="glyph598" horiz-adv-x="237" 
d="M63 0l-38 357l38 356h263v-85h-183l-29 -271l29 -273h183v-84h-75v-167h-84v167h-104z" />
    <glyph glyph-name="glyph599" horiz-adv-x="238" 
d="M180 867l165 -52l-21 -71l-166 52zM-10 0l159 713h177v-83h-109l-72 -323h181v-83h-199l-50 -224h-87z" />
    <glyph glyph-name="glyph600" horiz-adv-x="238" 
d="M190 815l166 52l22 -71l-166 -52zM-10 0l159 713h177v-83h-109l-72 -323h181v-83h-199l-50 -224h-87z" />
    <glyph glyph-name="glyph601" horiz-adv-x="238" 
d="M283 754l-9 37h-29l-8 -37h-60l21 95h123l23 -95h-61zM-10 0l159 713h177v-83h-109l-72 -323h181v-83h-199l-50 -224h-87z" />
    <glyph glyph-name="glyph602" horiz-adv-x="238" 
d="M268 849l16 -48h16l10 48h47l-19 -94h-88l-14 41h-19l-8 -41h-47l19 94h87zM-10 0l159 713h177v-83h-109l-72 -323h181v-83h-199l-50 -224h-87z" />
    <glyph glyph-name="glyph603" horiz-adv-x="238" 
d="M172 755v102h65v-102h-65zM285 755v102h65v-102h-65zM-10 0l159 713h177v-83h-109l-72 -323h181v-83h-199l-50 -224h-87z" />
    <glyph glyph-name="glyph604" horiz-adv-x="238" 
d="M-10 0l159 713h36l-9 40l19 89h122l17 -89l-8 -40v-83h-109l-72 -323h181v-83h-199l-50 -224h-87zM282 753l-9 42h-36l-8 -42l8 -40h37z" />
    <glyph glyph-name="glyph605" horiz-adv-x="553" 
d="M283 0l-13 224h-139l-28 -224h-87l90 713h423v-89h-194l13 -209h295v-84h-290l14 -243h162v-88h-246zM181 630l-40 -323h124l-19 323h-65z" />
    <glyph glyph-name="glyph606" horiz-adv-x="326" 
d="M87 867l165 -52l-21 -71l-166 52zM42 0v713h263v-88h-171v-210h276v-84h-276v-243h171v-88h-263z" />
    <glyph glyph-name="glyph607" horiz-adv-x="326" 
d="M85 815l166 52l22 -71l-166 -52zM42 0v713h263v-88h-171v-210h276v-84h-276v-243h171v-88h-263z" />
    <glyph glyph-name="glyph608" horiz-adv-x="326" 
d="M196 754l-9 37h-29l-8 -37h-60l21 95h123l23 -95h-61zM42 0v713h263v-88h-171v-210h276v-84h-276v-243h171v-88h-263z" />
    <glyph glyph-name="glyph609" horiz-adv-x="326" 
d="M84 755v102h65v-102h-65zM197 755v102h65v-102h-65zM42 0v713h263v-88h-171v-210h276v-84h-276v-243h171v-88h-263z" />
    <glyph glyph-name="glyph610" horiz-adv-x="331" 
d="M269 849l16 -48h16l10 48h47l-19 -94h-88l-14 41h-19l-8 -41h-47l19 94h87zM42 0v713h187l108 -634h118v-79h-189l-109 631h-32v-631h-83z" />
    <glyph glyph-name="glyph611" horiz-adv-x="237" 
d="M139 867l165 -52l-21 -71l-166 52zM63 0l-38 357l38 356h263v-85h-183l-29 -271l29 -273h183v-84h-263z" />
    <glyph glyph-name="glyph612" horiz-adv-x="237" 
d="M131 815l166 52l22 -71l-166 -52zM63 0l-38 357l38 356h263v-85h-183l-29 -271l29 -273h183v-84h-263z" />
    <glyph glyph-name="glyph613" horiz-adv-x="237" 
d="M232 754l-9 37h-29l-8 -37h-60l21 95h123l23 -95h-61zM63 0l-38 357l38 356h263v-85h-183l-29 -271l29 -273h183v-84h-263z" />
    <glyph glyph-name="glyph614" horiz-adv-x="237" 
d="M218 849l16 -48h16l10 48h47l-19 -94h-88l-14 41h-19l-8 -41h-47l19 94h87zM63 0l-38 357l38 356h263v-85h-183l-29 -271l29 -273h183v-84h-263z" />
    <glyph glyph-name="glyph615" horiz-adv-x="237" 
d="M121 755v102h65v-102h-65zM234 755v102h65v-102h-65zM63 0l-38 357l38 356h263v-85h-183l-29 -271l29 -273h183v-84h-263z" />
    <glyph glyph-name="glyph616" horiz-adv-x="572" 
d="M60 0l-38 357l38 356h488v-89h-181v-209h290v-84h-290v-243h181v-88h-488zM140 84h137v544h-137l-29 -271z" />
    <glyph glyph-name="glyph617" horiz-adv-x="383" 
d="M-62 0v88h99v625h285l25 -225l-36 -108l48 -114l-27 -266h-394zM270 261l-31 73h-113v-246h127zM260 489l-16 143h-118v-215h110z" />
    <glyph glyph-name="glyph618" horiz-adv-x="405" 
d="M-62 0v88h99v625h305l38 -356l-38 -357h-404zM292 357l-30 271h-136v-540h137z" />
    <glyph glyph-name="glyph619" horiz-adv-x="325" 
d="M-62 0v88h252l18 163l-183 215l29 247h224v-86h-146l-15 -127l184 -217l-32 -283h-331z" />
    <glyph glyph-name="glyph620" horiz-adv-x="405" 
d="M-63 0v88h100v238h-46v85h46v302h305l38 -356l-38 -357h-405zM211 411v-85h-85v-241h136l30 272l-30 271h-136v-217h85z" />
    <glyph glyph-name="glyph621" horiz-adv-x="325" 
d="M-62 0v88h252l18 163l-183 215l29 247h224v-86h-146l-15 -127l184 -217l-32 -283h-331zM149 849l8 -36h30l8 36h61l-22 -94h-123l-23 94h61z" />
    <glyph glyph-name="glyph622" horiz-adv-x="392" 
d="M355 488l-35 -107l48 -115l-27 -266h-300v625h-125v88h414zM279 261l-31 73h-118v-253h132zM269 489l-16 139h-123v-211h115z" />
    <glyph glyph-name="glyph623" horiz-adv-x="410" 
d="M385 357l-38 -357h-305v625h-127v88h432zM297 357l-31 271h-135v-544h135z" />
    <glyph glyph-name="glyph624" horiz-adv-x="384" 
d="M132 281v-281h-90v625h-129v88h421l23 -218l-23 -214h-202zM268 495l-14 130h-122v-262h121z" />
    <glyph glyph-name="glyph625" horiz-adv-x="404" 
d="M304 1l-80 306h-93v-307h-89v625h-127v88h419l26 -221l-56 -148l91 -343h-91zM271 496l-15 132h-125v-239h100z" />
    <glyph glyph-name="glyph626" horiz-adv-x="283" 
d="M-54 625v88h327v-88h-117v-625h-92v625h-118z" />
    <glyph glyph-name="glyph627" horiz-adv-x="410" 
d="M385 357l-38 -357h-305v326h-41v85h41v214h-127v88h432zM297 357l-31 271h-135v-217h90v-85h-90v-242h135z" />
    <glyph glyph-name="glyph628" horiz-adv-x="238" 
d="M89 713l159 -713h-87l-50 224h-199v83h181l-72 323h-109v83h177z" />
    <glyph glyph-name="glyph629" horiz-adv-x="217" 
d="M194 266l-28 -266h-253v81h174l18 180l-31 71h-161v82h156l25 75l-16 143h-165v81h243l25 -225l-36 -109z" />
    <glyph glyph-name="glyph630" horiz-adv-x="237" 
d="M-86 628v85h260l39 -356l-39 -357h-260v84h180l30 273l-30 271h-180z" />
    <glyph glyph-name="glyph631" horiz-adv-x="159" 
d="M-87 625v88h223v-88h-223zM-87 0v88h223v-88h-223zM-87 331v84h199v-84h-199z" />
    <glyph glyph-name="glyph632" horiz-adv-x="152" 
d="M-87 332v85h205v-85h-205zM-87 624v89h223v-89h-223z" />
    <glyph glyph-name="glyph633" horiz-adv-x="244" 
d="M-85 331v86h197v296h90v-713h-90v331h-197z" />
    <glyph glyph-name="glyph634" horiz-adv-x="236" 
d="M-86 331v86h117l89 296h92l-100 -335l106 -378h-92l-93 331h-119z" />
    <glyph glyph-name="glyph635" horiz-adv-x="145" 
d="M-88 0v88h223v-88h-223z" />
    <glyph glyph-name="glyph636" horiz-adv-x="463" 
d="M66 0l-73 631h-80v82h151l74 -634h26l74 634h189v-713h-82v631h-36l-73 -631h-170z" />
    <glyph glyph-name="glyph637" horiz-adv-x="330" 
d="M-87 631v82h148l109 -634h35v634h83v-713h-189l-109 631h-77z" />
    <glyph glyph-name="glyph638" horiz-adv-x="210" 
d="M-87 631v82h247l22 -218l-22 -214h-247v82h166l15 132l-15 136h-166z" />
    <glyph glyph-name="glyph639" horiz-adv-x="232" 
d="M-86 631v82h248l25 -221l-55 -151l91 -341h-91l-82 307h-136v82h145l39 107l-16 135h-168z" />
    <glyph glyph-name="glyph640" horiz-adv-x="238" 
d="M-91 867l165 -52l-21 -71l-166 52zM89 713l159 -713h-87l-50 224h-199v83h181l-72 323h-109v83h177z" />
    <glyph glyph-name="glyph641" horiz-adv-x="238" 
d="M-93 815l166 52l22 -71l-166 -52zM89 713l159 -713h-87l-50 224h-199v83h181l-72 323h-109v83h177z" />
    <glyph glyph-name="glyph642" horiz-adv-x="238" 
d="M5 754l-9 37h-29l-8 -37h-60l21 95h123l23 -95h-61zM89 713l159 -713h-87l-50 224h-199v83h181l-72 323h-109v83h177z" />
    <glyph glyph-name="glyph643" horiz-adv-x="238" 
d="M-8 849l16 -48h16l10 48h47l-19 -94h-88l-14 41h-19l-8 -41h-47l19 94h87zM89 713l159 -713h-87l-50 224h-199v83h181l-72 323h-109v83h177z" />
    <glyph glyph-name="glyph644" horiz-adv-x="238" 
d="M-129 755v102h65v-102h-65zM-16 755v102h65v-102h-65zM89 713l159 -713h-87l-50 224h-199v83h181l-72 323h-109v83h177z" />
    <glyph glyph-name="glyph645" horiz-adv-x="238" 
d="M89 713l159 -713h-87l-50 224h-199v83h181l-72 323h-109v59l-14 64l19 89h122l17 -89l-8 -40h41zM4 753l-9 42h-36l-8 -42l8 -40h37z" />
    <glyph glyph-name="glyph646" horiz-adv-x="159" 
d="M-73 867l165 -52l-21 -71l-166 52zM-87 625v88h223v-88h-223zM-87 0v88h223v-88h-223zM-87 331v84h199v-84h-199z" />
    <glyph glyph-name="glyph647" horiz-adv-x="159" 
d="M-75 815l166 52l22 -71l-166 -52zM-87 625v88h223v-88h-223zM-87 0v88h223v-88h-223zM-87 331v84h199v-84h-199z" />
    <glyph glyph-name="glyph648" horiz-adv-x="159" 
d="M36 754l-9 37h-29l-8 -37h-60l21 95h123l23 -95h-61zM-87 625v88h223v-88h-223zM-87 0v88h223v-88h-223zM-87 331v84h199v-84h-199z" />
    <glyph glyph-name="glyph649" horiz-adv-x="159" 
d="M-76 755v102h65v-102h-65zM37 755v102h65v-102h-65zM-87 625v88h223v-88h-223zM-87 0v88h223v-88h-223zM-87 331v84h199v-84h-199z" />
    <glyph glyph-name="glyph650" horiz-adv-x="237" 
d="M39 417v-85h-128v85h128zM-86 628v85h260l39 -356l-39 -357h-260v84h180l30 273l-30 271h-180z" />
    <glyph glyph-name="glyph651" horiz-adv-x="330" 
d="M127 849l16 -48h16l10 48h47l-19 -94h-88l-14 41h-19l-8 -41h-47l19 94h87zM-87 631v82h148l109 -634h35v634h83v-713h-189l-109 631h-77z" />
    <glyph glyph-name="glyph652" horiz-adv-x="211" 
d="M-87 487v82h247l23 -218l-23 -214h-247v82h166l15 132l-15 136h-166z" />
    <glyph glyph-name="glyph653" horiz-adv-x="147" 
d="M-88 0v88h225v-88h-225zM-92 313l-18 75l181 65l19 -75z" />
    </font>
</defs>
</svg>
